<svg width="53" height="64" viewBox="0 0 53 64" fill="none" xmlns="http://www.w3.org/2000/svg">
<g clip-path="url(#clip0_583_2886)">
<path d="M32.2684 0.986672C35.2671 0.259316 38.4887 0.693339 41.2571 2.0184C42.8989 2.95817 44.0311 4.59587 44.6341 6.35403C45.5295 8.94621 45.5655 11.7407 45.3519 14.446C44.9884 18.3835 44.044 22.2575 42.6945 25.9733C42.22 27.2349 41.7168 28.4947 41.0379 29.6644C40.9019 29.8998 40.7539 30.1306 40.5616 30.3255C41.2432 28.5508 41.7677 26.72 42.207 24.8726C42.8147 22.2354 43.2162 19.5375 43.1866 16.8267C43.1681 14.229 42.7343 11.5632 41.4569 9.26621C40.1352 6.86621 37.7701 5.02805 35.0692 4.44966C32.8095 3.96322 30.449 4.41656 28.3494 5.30391C25.532 6.49748 23.0541 8.35679 20.8147 10.411C19.6706 11.4704 18.5976 12.6041 17.582 13.7858C19.0999 11.1126 20.9868 8.64184 23.1632 6.46345C25.6911 3.95495 28.7471 1.81334 32.2684 0.986672Z" fill="white"/>
<path d="M23.9594 4.63354C20.0848 8.37148 16.8123 12.7117 14.1605 17.3821C12.6297 20.1103 11.3209 22.9646 10.3173 25.9264C9.36737 28.6786 8.71065 31.5273 8.29905 34.4073C7.93832 36.8643 7.77645 39.3563 7.93277 41.8372C8.11036 44.3246 8.63018 46.8432 9.87239 49.0345C10.8343 50.7099 12.2782 52.2391 14.1688 52.8395C14.0671 52.9489 13.907 52.9545 13.772 52.9995C12.0127 53.474 10.1138 53.6221 8.34345 53.1209C6.97729 52.7402 5.75728 51.8768 4.95442 50.7135C3.89442 49.1954 3.47172 47.3388 3.308 45.5246C3.06752 42.3733 3.51612 39.2165 4.16544 36.1379C4.62051 34.0046 5.19213 31.8979 5.8322 29.8133C5.98112 29.3517 6.09859 28.8772 6.29745 28.4331C7.56186 25.6027 9.01959 22.8598 10.6087 20.1968C12.6732 16.7641 14.9846 13.4685 17.6438 10.4625C19.5474 8.31814 21.6341 6.32182 23.9594 4.63354Z" fill="white"/>
<path d="M40.9082 30.7918C43.9245 30.7706 46.9417 30.7872 49.9589 30.7835C49.9598 31.509 49.9589 32.2336 49.9598 32.9591C48.835 32.9646 47.7094 32.9545 46.5846 32.9646C46.5911 36.5242 46.5828 40.0837 46.5883 43.6442C45.8253 43.6469 45.0622 43.6341 44.3 43.6506C44.2704 40.0883 44.2926 36.5242 44.288 32.961C43.1614 32.9564 42.0348 32.9674 40.9082 32.9554C40.9184 32.2345 40.9184 31.5127 40.9082 30.7918Z" fill="white"/>
<path d="M11.6062 30.9453C13.0722 30.9481 14.5392 30.9462 16.0062 30.9472C16.8405 30.9554 17.6785 30.9628 18.5073 31.075C19.5321 31.2249 20.4321 31.9108 20.9242 32.8055C21.2951 33.4842 21.4051 34.2722 21.3876 35.0354C21.3654 35.7637 21.2016 36.5076 20.7845 37.1173C20.2147 38.023 19.201 38.6216 18.1391 38.7384C16.8285 38.8984 15.5058 38.8469 14.1896 38.8515C14.1887 40.4451 14.1776 42.0396 14.1951 43.634C13.3312 43.6524 12.4664 43.6432 11.6016 43.6386C11.6145 39.4078 11.6053 35.1761 11.6062 30.9453ZM14.1831 33.1035C14.1905 34.2998 14.1877 35.4961 14.185 36.6924C15.1552 36.709 16.1311 36.7246 17.0986 36.6216C17.5721 36.572 18.042 36.3678 18.3482 35.9954C18.7875 35.4621 18.8495 34.6676 18.5406 34.058C18.251 33.5072 17.6369 33.1844 17.0255 33.1476C16.0802 33.0851 15.1303 33.0731 14.1831 33.1035Z" fill="white"/>
<path d="M21.7529 30.9582C24.7711 30.9388 27.791 30.9517 30.8101 30.9517C30.8091 31.6763 30.8101 32.4 30.8091 33.1246C29.6807 33.1393 28.5513 33.1053 27.4238 33.1421C27.4479 36.6979 27.4312 40.2556 27.4321 43.8124C26.6654 43.8032 25.8995 43.8106 25.1336 43.8087C25.1373 40.2483 25.1327 36.6878 25.1364 33.1273C24.0107 33.1246 22.8851 33.1283 21.7594 33.1264C21.7594 32.4027 21.7714 31.68 21.7529 30.9582Z" fill="white"/>
<path d="M34.4676 35.7581C35.3407 36.6215 36.213 37.4859 37.0787 38.3576C37.0695 40.1194 37.0778 41.8822 37.075 43.644C36.2046 43.701 35.3342 43.7498 34.4639 43.8096C34.4685 41.1254 34.462 38.4422 34.4676 35.7581Z" fill="white"/>
<path d="M31.6148 40.7201C32.499 39.4879 33.3454 38.1794 33.7422 36.7026C33.7866 38.847 33.7338 40.9914 33.7616 43.1367C33.7597 43.2507 33.6867 43.3454 33.6395 43.4456C32.0402 46.4341 29.5641 48.8599 26.8762 50.8911C25.0328 52.2751 23.0543 53.476 21.0083 54.5408C19.6986 55.2295 18.3204 55.8006 16.8793 56.1518C15.0267 56.607 13.0602 56.6852 11.2001 56.2282C8.78693 55.6424 6.60867 54.196 5.09082 52.2484C6.23036 53.4079 7.82221 54.0396 9.42515 54.2144C11.5414 54.4553 13.6735 53.9836 15.6445 53.2332C18.7163 52.0488 21.4588 50.1767 24.0348 48.1619C26.8244 45.9716 29.492 43.5707 31.6148 40.7201Z" fill="white"/>
<path d="M1.06265 57.669C8.38735 57.6791 15.713 57.6727 23.0377 57.6727C24.0977 57.6543 25.2668 57.6589 26.1575 58.3136C27.0177 57.6313 28.1832 57.6561 29.2256 57.6662C36.4153 57.6699 43.604 57.6699 50.7927 57.6671C50.7918 57.9899 50.8001 58.3136 50.7863 58.6382C43.4172 58.6391 36.0481 58.6419 28.679 58.6345C28.0842 58.6409 27.4525 58.6704 26.9243 58.9692C26.7708 59.0464 26.6811 59.1945 26.6135 59.3453C26.2991 59.3573 25.9855 59.3729 25.6719 59.395C25.6497 59.074 25.3343 58.9214 25.0633 58.8359C24.1976 58.5573 23.2763 58.6602 22.3828 58.6455C15.2764 58.6492 8.16998 58.6373 1.06357 58.651C1.05617 58.3237 1.05802 57.9963 1.06265 57.669Z" fill="white"/>
<path d="M1.05762 59.3489C8.57101 59.3526 16.0835 59.3498 23.5959 59.3498C24.3923 59.4022 25.161 59.7884 25.6521 60.4183C25.654 61.4261 25.653 62.4349 25.6521 63.4427C25.161 62.5636 24.0732 62.2776 23.1288 62.2767C15.7727 62.2988 8.41654 62.3374 1.06132 62.3843C1.05577 61.3728 1.06224 60.3604 1.05762 59.3489Z" fill="white"/>
<path d="M26.1943 60.4277C26.6883 59.7757 27.4846 59.3914 28.2986 59.3472C35.7916 59.3509 43.2856 59.3574 50.7787 59.3445C50.8138 60.3551 50.7833 61.3684 50.7935 62.3799C43.4188 62.344 36.0442 62.2944 28.6686 62.2778C27.7409 62.2861 26.691 62.5794 26.198 63.43C26.1943 62.4295 26.2036 61.4282 26.1943 60.4277Z" fill="white"/>
<path d="M38.3903 24.411C38.4208 24.2942 38.4874 24.1913 38.5466 24.0864C38.2608 26.3301 37.8982 28.5655 37.5884 30.8073C36.9834 31.1053 36.4137 31.4749 35.7939 31.7434C36.4904 29.7471 37.2285 27.7655 37.9417 25.7747C38.0962 25.3214 38.2969 24.8827 38.3903 24.411Z" fill="white"/>
<path d="M31.7236 30.8203C32.6763 31.2396 33.6142 31.693 34.5651 32.1159C34.6918 32.1684 34.8084 32.2428 34.9147 32.3302C34.258 32.5739 33.5985 32.8102 32.9418 33.0548C32.533 32.3118 32.1038 31.578 31.7236 30.8203Z" fill="white"/>
<path d="M30.3308 37.601C31.9689 36.0203 33.5866 34.4176 35.2349 32.8479C35.8324 34.3293 36.4687 35.7978 37.0172 37.2966C36.33 36.5536 35.6779 35.7776 35.0184 35.0097C33.3924 35.9394 31.807 36.9445 30.168 37.8502C30.2124 37.761 30.2558 37.6691 30.3308 37.601Z" fill="white"/>
<path d="M34.8924 30.7606C36.0587 28.6447 37.1964 26.5114 38.3905 24.4111C38.2971 24.8829 38.0964 25.3215 37.9419 25.7748C37.2288 27.7656 36.4907 29.7472 35.7942 31.7435C36.4139 31.475 36.9837 31.1054 37.5886 30.8075C38.5533 30.7753 39.5199 30.8056 40.4855 30.767C40.4883 30.7918 40.4948 30.8406 40.4976 30.8654C40.4772 30.8691 40.4374 30.8764 40.4171 30.881C40.2395 30.9132 40.0638 30.9491 39.8936 31.0079C38.459 31.5109 37.0179 31.9946 35.5833 32.4966C36.055 32.7716 36.5841 32.9298 37.0752 33.167C37.0678 34.5739 37.0863 35.9817 37.066 37.3886C37.053 37.3656 37.029 37.3196 37.017 37.2967C36.4685 35.7978 35.8321 34.3293 35.2346 32.8479C33.5863 34.4176 31.9686 36.0203 30.3305 37.601C30.2556 37.6691 30.2121 37.761 30.1677 37.8502C30.1122 37.9532 29.9725 37.9716 29.8828 38.036C30.9141 36.3835 31.9177 34.7127 32.9416 33.0548C33.5983 32.8102 34.2578 32.5739 34.9146 32.3302C34.8082 32.2429 34.6916 32.1684 34.5649 32.116C33.6141 31.693 32.6762 31.2396 31.7235 30.8203L31.6883 30.8056C32.7557 30.7789 33.824 30.7872 34.8924 30.7606Z" fill="white"/>
<path d="M39.8943 31.0078C40.0645 30.9489 40.2402 30.913 40.4178 30.8809C39.3143 31.6579 38.1896 32.4055 37.0759 33.1668C36.5848 32.9296 36.0557 32.7714 35.584 32.4965C37.0186 31.9944 38.4597 31.5107 39.8943 31.0078Z" fill="white"/>
</g>
<defs>
<clipPath id="clip0_583_2886">
<rect width="52.5373" height="64" fill="white"/>
</clipPath>
</defs>
</svg>
