<svg width="580" height="64" viewBox="0 0 580 64" fill="none" xmlns="http://www.w3.org/2000/svg">
<g clip-path="url(#clip0_286_2642)">
<path d="M32.2684 0.986672C35.2671 0.259316 38.4887 0.693339 41.2571 2.0184C42.8989 2.95817 44.0311 4.59587 44.6341 6.35403C45.5295 8.94621 45.5655 11.7407 45.3519 14.446C44.9884 18.3835 44.044 22.2575 42.6945 25.9733C42.22 27.2349 41.7168 28.4947 41.0379 29.6644C40.9019 29.8998 40.7539 30.1306 40.5616 30.3255C41.2432 28.5508 41.7677 26.72 42.207 24.8726C42.8147 22.2354 43.2162 19.5375 43.1866 16.8267C43.1681 14.229 42.7343 11.5632 41.4569 9.26621C40.1352 6.86621 37.7701 5.02805 35.0692 4.44966C32.8095 3.96322 30.449 4.41656 28.3494 5.30391C25.532 6.49748 23.0541 8.35679 20.8147 10.411C19.6706 11.4704 18.5976 12.6041 17.582 13.7858C19.0999 11.1126 20.9868 8.64184 23.1632 6.46345C25.6911 3.95495 28.7471 1.81334 32.2684 0.986672Z" fill="white"/>
<path d="M23.9594 4.63354C20.0848 8.37148 16.8123 12.7117 14.1605 17.3821C12.6297 20.1103 11.3209 22.9646 10.3173 25.9264C9.36737 28.6786 8.71065 31.5273 8.29905 34.4073C7.93832 36.8643 7.77645 39.3563 7.93277 41.8372C8.11036 44.3246 8.63018 46.8432 9.87239 49.0345C10.8343 50.7099 12.2782 52.2391 14.1688 52.8395C14.0671 52.9489 13.907 52.9545 13.772 52.9995C12.0127 53.474 10.1138 53.6221 8.34345 53.1209C6.97729 52.7402 5.75728 51.8768 4.95442 50.7135C3.89442 49.1954 3.47172 47.3388 3.308 45.5246C3.06752 42.3733 3.51612 39.2165 4.16544 36.1379C4.62051 34.0046 5.19213 31.8979 5.8322 29.8133C5.98112 29.3517 6.09859 28.8772 6.29745 28.4331C7.56186 25.6027 9.01959 22.8598 10.6087 20.1968C12.6732 16.7641 14.9846 13.4685 17.6438 10.4625C19.5474 8.31814 21.6341 6.32182 23.9594 4.63354Z" fill="white"/>
<path d="M40.9082 30.7918C43.9245 30.7706 46.9417 30.7872 49.9589 30.7835C49.9598 31.509 49.9589 32.2336 49.9598 32.9591C48.835 32.9646 47.7094 32.9545 46.5846 32.9646C46.5911 36.5242 46.5828 40.0837 46.5883 43.6442C45.8253 43.6469 45.0622 43.6341 44.3 43.6506C44.2704 40.0883 44.2926 36.5242 44.288 32.961C43.1614 32.9564 42.0348 32.9674 40.9082 32.9554C40.9184 32.2345 40.9184 31.5127 40.9082 30.7918Z" fill="white"/>
<path d="M11.6062 30.9453C13.0722 30.9481 14.5392 30.9462 16.0062 30.9472C16.8405 30.9554 17.6785 30.9628 18.5073 31.075C19.5321 31.2249 20.4321 31.9108 20.9242 32.8055C21.2951 33.4842 21.4051 34.2722 21.3876 35.0354C21.3654 35.7637 21.2016 36.5076 20.7845 37.1173C20.2147 38.023 19.201 38.6216 18.1391 38.7384C16.8285 38.8984 15.5058 38.8469 14.1896 38.8515C14.1887 40.4451 14.1776 42.0396 14.1951 43.634C13.3312 43.6524 12.4664 43.6432 11.6016 43.6386C11.6145 39.4078 11.6053 35.1761 11.6062 30.9453ZM14.1831 33.1035C14.1905 34.2998 14.1877 35.4961 14.185 36.6924C15.1552 36.709 16.1311 36.7246 17.0986 36.6216C17.5721 36.572 18.042 36.3678 18.3482 35.9954C18.7875 35.4621 18.8495 34.6676 18.5406 34.058C18.251 33.5072 17.6369 33.1844 17.0255 33.1476C16.0802 33.0851 15.1303 33.0731 14.1831 33.1035Z" fill="white"/>
<path d="M21.7529 30.9582C24.7711 30.9388 27.791 30.9517 30.8101 30.9517C30.8091 31.6763 30.8101 32.4 30.8091 33.1246C29.6807 33.1393 28.5513 33.1053 27.4238 33.1421C27.4479 36.6979 27.4312 40.2556 27.4321 43.8124C26.6654 43.8032 25.8995 43.8106 25.1336 43.8087C25.1373 40.2483 25.1327 36.6878 25.1364 33.1273C24.0107 33.1246 22.8851 33.1283 21.7594 33.1264C21.7594 32.4027 21.7714 31.68 21.7529 30.9582Z" fill="white"/>
<path d="M34.4676 35.7581C35.3407 36.6215 36.213 37.4859 37.0787 38.3576C37.0695 40.1194 37.0778 41.8822 37.075 43.644C36.2046 43.701 35.3342 43.7498 34.4639 43.8096C34.4685 41.1254 34.462 38.4422 34.4676 35.7581Z" fill="white"/>
<path d="M31.6148 40.7201C32.499 39.4879 33.3454 38.1794 33.7422 36.7026C33.7866 38.847 33.7338 40.9914 33.7616 43.1367C33.7597 43.2507 33.6867 43.3454 33.6395 43.4456C32.0402 46.4341 29.5641 48.8599 26.8762 50.8911C25.0328 52.2751 23.0543 53.476 21.0083 54.5408C19.6986 55.2295 18.3204 55.8006 16.8793 56.1518C15.0267 56.607 13.0602 56.6852 11.2001 56.2282C8.78693 55.6424 6.60867 54.196 5.09082 52.2484C6.23036 53.4079 7.82221 54.0396 9.42515 54.2144C11.5414 54.4553 13.6735 53.9836 15.6445 53.2332C18.7163 52.0488 21.4588 50.1767 24.0348 48.1619C26.8244 45.9716 29.492 43.5707 31.6148 40.7201Z" fill="white"/>
<path d="M1.06265 57.669C8.38735 57.6791 15.713 57.6727 23.0377 57.6727C24.0977 57.6543 25.2668 57.6589 26.1575 58.3136C27.0177 57.6313 28.1832 57.6561 29.2256 57.6662C36.4153 57.6699 43.604 57.6699 50.7927 57.6671C50.7918 57.9899 50.8001 58.3136 50.7863 58.6382C43.4172 58.6391 36.0481 58.6419 28.679 58.6345C28.0842 58.6409 27.4525 58.6704 26.9243 58.9692C26.7708 59.0464 26.6811 59.1945 26.6135 59.3453C26.2991 59.3573 25.9855 59.3729 25.6719 59.395C25.6497 59.074 25.3343 58.9214 25.0633 58.8359C24.1976 58.5573 23.2763 58.6602 22.3828 58.6455C15.2764 58.6492 8.16998 58.6373 1.06357 58.651C1.05617 58.3237 1.05802 57.9963 1.06265 57.669Z" fill="white"/>
<path d="M1.05762 59.3489C8.57101 59.3526 16.0835 59.3498 23.5959 59.3498C24.3923 59.4022 25.161 59.7884 25.6521 60.4183C25.654 61.4261 25.653 62.4349 25.6521 63.4427C25.161 62.5636 24.0732 62.2776 23.1288 62.2767C15.7727 62.2988 8.41654 62.3374 1.06132 62.3843C1.05577 61.3728 1.06224 60.3604 1.05762 59.3489Z" fill="white"/>
<path d="M26.1943 60.4277C26.6883 59.7757 27.4846 59.3914 28.2986 59.3472C35.7916 59.3509 43.2856 59.3574 50.7787 59.3445C50.8138 60.3551 50.7833 61.3684 50.7935 62.3799C43.4188 62.344 36.0442 62.2944 28.6686 62.2778C27.7409 62.2861 26.691 62.5794 26.198 63.43C26.1943 62.4295 26.2036 61.4282 26.1943 60.4277Z" fill="white"/>
<path d="M38.3903 24.411C38.4208 24.2942 38.4874 24.1913 38.5466 24.0864C38.2608 26.3301 37.8982 28.5655 37.5884 30.8073C36.9834 31.1053 36.4137 31.4749 35.7939 31.7434C36.4904 29.7471 37.2285 27.7655 37.9417 25.7747C38.0962 25.3214 38.2969 24.8827 38.3903 24.411Z" fill="white"/>
<path d="M31.7236 30.8203C32.6763 31.2396 33.6142 31.693 34.5651 32.1159C34.6918 32.1684 34.8084 32.2428 34.9147 32.3302C34.258 32.5739 33.5985 32.8102 32.9418 33.0548C32.533 32.3118 32.1038 31.578 31.7236 30.8203Z" fill="white"/>
<path d="M30.3308 37.601C31.9689 36.0203 33.5866 34.4176 35.2349 32.8479C35.8324 34.3293 36.4687 35.7978 37.0172 37.2966C36.33 36.5536 35.6779 35.7776 35.0184 35.0097C33.3924 35.9394 31.807 36.9445 30.168 37.8502C30.2124 37.761 30.2558 37.6691 30.3308 37.601Z" fill="white"/>
<path d="M34.8924 30.7606C36.0587 28.6447 37.1964 26.5114 38.3905 24.4111C38.2971 24.8829 38.0964 25.3215 37.9419 25.7748C37.2288 27.7656 36.4907 29.7472 35.7942 31.7435C36.4139 31.475 36.9837 31.1054 37.5886 30.8075C38.5533 30.7753 39.5199 30.8056 40.4855 30.767C40.4883 30.7918 40.4948 30.8406 40.4976 30.8654C40.4772 30.8691 40.4374 30.8764 40.4171 30.881C40.2395 30.9132 40.0638 30.9491 39.8936 31.0079C38.459 31.5109 37.0179 31.9946 35.5833 32.4966C36.055 32.7716 36.5841 32.9298 37.0752 33.167C37.0678 34.5739 37.0863 35.9817 37.066 37.3886C37.053 37.3656 37.029 37.3196 37.017 37.2967C36.4685 35.7978 35.8321 34.3293 35.2346 32.8479C33.5863 34.4176 31.9686 36.0203 30.3305 37.601C30.2556 37.6691 30.2121 37.761 30.1677 37.8502C30.1122 37.9532 29.9725 37.9716 29.8828 38.036C30.9141 36.3835 31.9177 34.7127 32.9416 33.0548C33.5983 32.8102 34.2578 32.5739 34.9146 32.3302C34.8082 32.2429 34.6916 32.1684 34.5649 32.116C33.6141 31.693 32.6762 31.2396 31.7235 30.8203L31.6883 30.8056C32.7557 30.7789 33.824 30.7872 34.8924 30.7606Z" fill="white"/>
<path d="M39.8943 31.0078C40.0645 30.9489 40.2402 30.913 40.4178 30.8809C39.3143 31.6579 38.1896 32.4055 37.0759 33.1668C36.5848 32.9296 36.0557 32.7714 35.584 32.4965C37.0186 31.9944 38.4597 31.5107 39.8943 31.0078Z" fill="white"/>
</g>
<path d="M570.288 26.4233C565.658 26.4233 562.822 23.4048 562.822 18.356V18.3452C562.822 13.3823 565.669 10.3853 570.213 10.3853C573.94 10.3853 576.476 12.5552 576.991 15.4663L577.023 15.6167H573.769L573.726 15.5093C573.21 14.0054 571.975 13.1353 570.224 13.1353C567.667 13.1353 566.131 15.0259 566.131 18.313V18.3237C566.131 21.686 567.764 23.6733 570.342 23.6733C572.458 23.6733 573.908 22.4165 573.994 20.5044L574.005 20.2788H570.46V17.8618H577.163V19.645C577.163 23.8667 574.606 26.4233 570.288 26.4233Z" fill="white"/>
<path d="M547.14 26.1548V10.6538H549.976L556.979 20.73H557.044V10.6538H560.277V26.1548H557.463L550.438 16.0034H550.373V26.1548H547.14Z" fill="white"/>
<path d="M533.379 9.37549L535.86 5.83057H538.374L540.866 9.37549H538.632L537.096 7.22705L535.613 9.37549H533.379ZM537.128 26.4233C532.52 26.4233 529.651 23.3403 529.651 18.4097V18.3882C529.651 13.4575 532.541 10.3853 537.128 10.3853C541.726 10.3853 544.604 13.4683 544.604 18.3882V18.4097C544.604 23.3403 541.736 26.4233 537.128 26.4233ZM537.128 23.6733C539.706 23.6733 541.296 21.6216 541.296 18.4097V18.3882C541.296 15.1548 539.674 13.1353 537.128 13.1353C534.593 13.1353 532.96 15.144 532.96 18.3882V18.4097C532.96 21.6538 534.582 23.6733 537.128 23.6733Z" fill="white"/>
<path d="M513.646 26.1548V10.6538H516.891V16.9487H523.873V10.6538H527.117V26.1548H523.873V19.6235H516.891V26.1548H513.646Z" fill="white"/>
<path d="M503.678 26.1548V13.3286H499.198V10.6538H511.412V13.3286H506.922V26.1548H503.678Z" fill="white"/>
<path d="M479.004 26.1548V10.6538H481.84L488.844 20.73H488.908V10.6538H492.142V26.1548H489.327L482.302 16.0034H482.237V26.1548H479.004Z" fill="white"/>
<path d="M472.44 7.33447C471.936 7.33447 471.474 7.21631 471.022 6.96924L470.754 6.80811C470.464 6.64697 470.271 6.57178 470.023 6.57178C469.669 6.57178 469.519 6.82959 469.519 7.30225V7.33447H467.939V7.23779C467.939 5.9165 468.702 5.20752 469.733 5.20752C470.217 5.20752 470.689 5.33643 471.13 5.59424L471.409 5.74463C471.699 5.9165 471.893 5.98096 472.161 5.98096C472.505 5.98096 472.666 5.72314 472.666 5.25049V5.20752H474.234V5.3042C474.234 6.63623 473.461 7.33447 472.44 7.33447ZM470.045 7.7749H472.118L474.438 9.94482H472.29L471.076 8.80615L469.895 9.94482H467.746L470.045 7.7749ZM465.952 26.1548V10.6538H476.222V13.3286H469.196V17.0454H475.824V19.5806H469.196V23.48H476.222V26.1548H465.952Z" fill="white"/>
<path d="M459.69 26.1548V10.6538H462.935V26.1548H459.69Z" fill="white"/>
<path d="M448.519 26.1548L443.33 10.6538H446.918L450.463 22.8354H450.527L454.062 10.6538H457.66L452.472 26.1548H448.519Z" fill="white"/>
<path d="M423.028 26.1548V10.6538H426.272V16.9487H433.255V10.6538H436.499V26.1548H433.255V19.6235H426.272V26.1548H423.028Z" fill="white"/>
<path d="M406.862 26.1548V10.6538H409.698L416.702 20.73H416.767V10.6538H420V26.1548H417.186L410.16 16.0034H410.096V26.1548H406.862Z" fill="white"/>
<path d="M403.027 9.37549H400.943L402.812 5.83057H405.562L403.027 9.37549ZM400.6 26.1548V10.6538H403.844V26.1548H400.6Z" fill="white"/>
<path d="M384.11 26.1548V10.6538H387.354V16.9487H394.337V10.6538H397.581V26.1548H394.337V19.6235H387.354V26.1548H384.11Z" fill="white"/>
<path d="M374.884 26.4233C370.351 26.4233 367.504 23.394 367.504 18.3989V18.3882C367.504 13.3931 370.361 10.3853 374.884 10.3853C378.644 10.3853 381.34 12.7593 381.641 16.0464L381.651 16.1431H378.493L378.45 15.9604C378.085 14.2524 376.817 13.1353 374.884 13.1353C372.402 13.1353 370.812 15.1333 370.812 18.3774V18.3882C370.812 21.6538 372.402 23.6733 374.884 23.6733C376.753 23.6733 378.063 22.5991 378.482 20.7622L378.504 20.6548H381.662L381.651 20.7729C381.351 24.0708 378.633 26.4233 374.884 26.4233Z" fill="white"/>
<path d="M353.669 26.4233C349.694 26.4233 347.17 24.1245 347.17 20.6763V10.6538H350.414V20.3862C350.414 22.395 351.585 23.6733 353.669 23.6733C355.753 23.6733 356.913 22.395 356.913 20.3862V10.6538H360.157V20.6763C360.157 24.1138 357.665 26.4233 353.669 26.4233Z" fill="white"/>
<path d="M337.115 26.4233C333.141 26.4233 330.616 24.1245 330.616 20.6763V10.6538H333.86V20.3862C333.86 22.395 335.031 23.6733 337.115 23.6733C339.199 23.6733 340.359 22.395 340.359 20.3862V10.6538C342.723 10.3638 343.249 9.68701 343.228 7.42041H345.645C345.645 9.71924 345.118 10.9116 343.604 11.5884V20.6763C343.604 24.1138 341.111 26.4233 337.115 26.4233Z" fill="white"/>
<path d="M316.104 26.1548V10.6538H322.851C325.772 10.6538 327.609 12.1577 327.609 14.5425V14.564C327.609 16.2612 326.32 17.7114 324.612 17.937V18.0015C326.771 18.1626 328.329 19.688 328.329 21.7183V21.7397C328.329 24.4575 326.277 26.1548 322.969 26.1548H316.104ZM322.013 13.0601H319.349V17.1313H321.615C323.441 17.1313 324.419 16.3687 324.419 15.0259V15.0044C324.419 13.769 323.527 13.0601 322.013 13.0601ZM322.002 19.3335H319.349V23.7378H322.142C324 23.7378 325.02 22.9751 325.02 21.5356V21.5142C325.02 20.0962 323.989 19.3335 322.002 19.3335Z" fill="white"/>
<path d="M299.648 9.37549L302.119 5.83057H304.633L307.136 9.37549H304.901L303.365 7.22705L301.883 9.37549H299.648ZM298.252 26.1548V10.6538H308.521V13.3286H301.496V17.0454H308.124V19.5806H301.496V23.48H308.521V26.1548H298.252ZM303.387 30.8921C302.452 30.8921 301.711 30.1509 301.711 29.2593C301.711 28.3677 302.452 27.6265 303.387 27.6265C304.332 27.6265 305.062 28.3677 305.062 29.2593C305.062 30.1509 304.332 30.8921 303.387 30.8921Z" fill="white"/>
<path d="M281.763 26.1548V10.6538H285.007V16.9487H291.989V10.6538H295.233V26.1548H291.989V19.6235H285.007V26.1548H281.763Z" fill="white"/>
<path d="M272.299 26.4233C267.669 26.4233 264.833 23.4048 264.833 18.356V18.3452C264.833 13.3823 267.68 10.3853 272.224 10.3853C275.951 10.3853 278.486 12.5552 279.002 15.4663L279.034 15.6167H275.779L275.736 15.5093C275.221 14.0054 273.985 13.1353 272.234 13.1353C269.678 13.1353 268.142 15.0259 268.142 18.313V18.3237C268.142 21.686 269.774 23.6733 272.353 23.6733C274.469 23.6733 275.919 22.4165 276.005 20.5044L276.016 20.2788H272.471V17.8618H279.174V19.645C279.174 23.8667 276.617 26.4233 272.299 26.4233Z" fill="white"/>
<path d="M249.15 26.1548V10.6538H251.986L258.99 20.73H259.055V10.6538H262.288V26.1548H259.474L252.448 16.0034H252.384V26.1548H249.15Z" fill="white"/>
<path d="M234.886 26.4233C230.256 26.4233 227.42 23.4048 227.42 18.356V18.3452C227.42 13.3823 230.267 10.3853 234.811 10.3853C238.538 10.3853 241.073 12.5552 241.589 15.4663L241.621 15.6167H238.366L238.323 15.5093C237.808 14.0054 236.572 13.1353 234.821 13.1353C232.265 13.1353 230.729 15.0259 230.729 18.313V18.3237C230.729 21.686 232.361 23.6733 234.939 23.6733C237.056 23.6733 238.506 22.4165 238.592 20.5044L238.603 20.2788H235.058V17.8618H241.761V19.645C241.761 23.8667 239.204 26.4233 234.886 26.4233Z" fill="white"/>
<path d="M211.736 26.1548V10.6538H214.572L221.576 20.73H221.641V10.6538H224.874V26.1548H222.06L215.034 16.0034H214.97V26.1548H211.736Z" fill="white"/>
<path d="M197.977 9.37549L200.458 5.83057H202.972L205.464 9.37549H203.229L201.693 7.22705L200.211 9.37549H197.977ZM201.726 26.4233C197.117 26.4233 194.249 23.3403 194.249 18.4097V18.3882C194.249 13.4575 197.139 10.3853 201.726 10.3853C206.323 10.3853 209.202 13.4683 209.202 18.3882V18.4097C209.202 23.3403 206.334 26.4233 201.726 26.4233ZM201.726 23.6733C204.304 23.6733 205.894 21.6216 205.894 18.4097V18.3882C205.894 15.1548 204.271 13.1353 201.726 13.1353C199.19 13.1353 197.558 15.144 197.558 18.3882V18.4097C197.558 21.6538 199.18 23.6733 201.726 23.6733Z" fill="white"/>
<path d="M185.505 26.4233C180.972 26.4233 178.125 23.394 178.125 18.3989V18.3882C178.125 13.3931 180.982 10.3853 185.505 10.3853C189.265 10.3853 191.961 12.7593 192.262 16.0464L192.272 16.1431H189.114L189.071 15.9604C188.706 14.2524 187.438 13.1353 185.505 13.1353C183.023 13.1353 181.434 15.1333 181.434 18.3774V18.3882C181.434 21.6538 183.023 23.6733 185.505 23.6733C187.374 23.6733 188.685 22.5991 189.104 20.7622L189.125 20.6548H192.283L192.272 20.7729C191.972 24.0708 189.254 26.4233 185.505 26.4233Z" fill="white"/>
<path d="M157.641 26.1548V10.6538H160.477L167.48 20.73H167.545V10.6538H170.778V26.1548H167.964L160.938 16.0034H160.874V26.1548H157.641Z" fill="white"/>
<path d="M145.985 9.37549L148.456 5.83057H150.97L153.473 9.37549H151.238L149.702 7.22705L148.22 9.37549H145.985ZM144.589 26.1548V10.6538H154.858V13.3286H147.833V17.0454H154.461V19.5806H147.833V23.48H154.858V26.1548H144.589ZM149.724 30.8921C148.789 30.8921 148.048 30.1509 148.048 29.2593C148.048 28.3677 148.789 27.6265 149.724 27.6265C150.669 27.6265 151.399 28.3677 151.399 29.2593C151.399 30.1509 150.669 30.8921 149.724 30.8921Z" fill="white"/>
<path d="M138.327 26.1548V10.6538H141.571V26.1548H138.327Z" fill="white"/>
<path d="M127.155 26.1548L121.967 10.6538H125.555L129.1 22.8354H129.164L132.698 10.6538H136.297L131.108 26.1548H127.155Z" fill="white"/>
<path d="M108.927 26.4233C104.394 26.4233 101.547 23.394 101.547 18.3989V18.3882C101.547 13.3931 104.404 10.3853 108.927 10.3853C112.687 10.3853 115.383 12.7593 115.684 16.0464L115.694 16.1431H112.536L112.493 15.9604C112.128 14.2524 110.86 13.1353 108.927 13.1353C106.445 13.1353 104.855 15.1333 104.855 18.3774V18.3882C104.855 21.6538 106.445 23.6733 108.927 23.6733C110.796 23.6733 112.106 22.5991 112.525 20.7622L112.547 20.6548H115.705L115.694 20.7729C115.394 24.0708 112.676 26.4233 108.927 26.4233Z" fill="white"/>
<path d="M92.0195 26.4233C87.4111 26.4233 84.543 23.3403 84.543 18.4097V18.3882C84.543 13.4575 87.4326 10.3853 92.0195 10.3853C96.6172 10.3853 99.4961 13.4683 99.4961 18.3882V18.4097C99.4961 23.3403 96.6279 26.4233 92.0195 26.4233ZM92.0195 23.6733C94.5977 23.6733 96.1875 21.6216 96.1875 18.4097V18.3882C96.1875 15.1548 94.5654 13.1353 92.0195 13.1353C89.4844 13.1353 87.8516 15.144 87.8516 18.3882V18.4097C87.8516 21.6538 89.4736 23.6733 92.0195 23.6733ZM92.0195 30.8921C91.0742 30.8921 90.3438 30.1509 90.3438 29.2593C90.3438 28.3677 91.0742 27.6265 92.0195 27.6265C92.9648 27.6265 93.6953 28.3677 93.6953 29.2593C93.6953 30.1509 92.9648 30.8921 92.0195 30.8921Z" fill="white"/>
<path d="M68.5371 26.1548V10.6538H71.7812V16.9487H78.7637V10.6538H82.0078V26.1548H78.7637V19.6235H71.7812V26.1548H68.5371Z" fill="white"/>
<path d="M571.954 58.5972C571.622 58.5972 571.261 58.5581 571.046 58.519V57.1323C571.192 57.1616 571.388 57.1909 571.593 57.1909C572.667 57.1909 573.263 56.9175 573.673 55.7651L573.878 55.189L570.108 45.0229H571.925L574.728 53.48H574.767L577.579 45.0229H579.366L575.401 55.814C574.679 57.7573 573.79 58.5972 571.954 58.5972Z" fill="white"/>
<path d="M563.098 58.7925C560.588 58.7925 559.006 57.6108 558.674 56.1069L558.654 56.019H560.363L560.402 56.1069C560.725 56.8394 561.691 57.2886 563.078 57.2886C564.865 57.2886 565.881 56.3022 565.881 54.73V53.4312H565.842C565.236 54.5542 564.064 55.2769 562.609 55.2769C560.051 55.2769 558.303 53.2163 558.303 50.0425V50.0327C558.303 46.8784 560.07 44.8276 562.648 44.8276C564.084 44.8276 565.217 45.6089 565.842 46.7417H565.881V45.0229H567.58V54.896C567.58 57.2495 565.852 58.7925 563.098 58.7925ZM562.98 53.7729C564.709 53.7729 565.881 52.2983 565.881 50.0425V50.0327C565.881 47.7964 564.699 46.3315 562.98 46.3315C561.174 46.3315 560.041 47.7769 560.041 50.0327V50.0425C560.041 52.3472 561.174 53.7729 562.98 53.7729Z" fill="white"/>
<path d="M551.185 55.3745C548.362 55.3745 546.478 53.3335 546.478 50.1011V50.0815C546.478 46.8491 548.372 44.8276 551.175 44.8276C553.978 44.8276 555.882 46.8394 555.882 50.0815V50.1011C555.882 53.3433 553.987 55.3745 551.185 55.3745ZM551.194 53.8706C552.981 53.8706 554.144 52.4839 554.144 50.1011V50.0815C554.144 47.6987 552.972 46.3315 551.175 46.3315C549.407 46.3315 548.216 47.7085 548.216 50.0815V50.1011C548.216 52.4937 549.397 53.8706 551.194 53.8706Z" fill="white"/>
<path d="M541.781 55.1792V41.0874H543.48V55.1792H541.781Z" fill="white"/>
<path d="M534.078 55.3745C531.256 55.3745 529.371 53.3335 529.371 50.1011V50.0815C529.371 46.8491 531.266 44.8276 534.068 44.8276C536.871 44.8276 538.775 46.8394 538.775 50.0815V50.1011C538.775 53.3433 536.881 55.3745 534.078 55.3745ZM534.088 53.8706C535.875 53.8706 537.037 52.4839 537.037 50.1011V50.0815C537.037 47.6987 535.865 46.3315 534.068 46.3315C532.301 46.3315 531.109 47.7085 531.109 50.0815V50.1011C531.109 52.4937 532.291 53.8706 534.088 53.8706Z" fill="white"/>
<path d="M518.122 55.1792V45.0229H519.821V46.4683H519.86C520.407 45.521 521.442 44.8276 522.985 44.8276C525.212 44.8276 526.501 46.2729 526.501 48.5874V55.1792H524.802V48.8901C524.802 47.2397 524.03 46.3315 522.468 46.3315C520.866 46.3315 519.821 47.4741 519.821 49.2026V55.1792H518.122Z" fill="white"/>
<path d="M506.229 55.1792V41.0874H507.928V46.644H507.967C508.514 45.5015 509.617 44.8276 511.131 44.8276C513.289 44.8276 514.764 46.4976 514.764 48.9585V55.1792H513.064V49.2515C513.064 47.4155 512.127 46.3315 510.545 46.3315C508.973 46.3315 507.928 47.5229 507.928 49.2515V55.1792H506.229Z" fill="white"/>
<path d="M499.13 55.3745C496.249 55.3745 494.423 53.3237 494.423 50.0913V50.0815C494.423 46.8784 496.288 44.8276 499.11 44.8276C501.64 44.8276 503.134 46.5073 503.349 48.2456L503.358 48.3237H501.698L501.679 48.2456C501.425 47.23 500.604 46.3315 499.11 46.3315C497.343 46.3315 496.161 47.7964 496.161 50.1011V50.1108C496.161 52.4741 497.372 53.8706 499.13 53.8706C500.517 53.8706 501.405 53.0894 501.688 51.9565L501.708 51.8784H503.378L503.368 51.9468C503.095 53.8804 501.425 55.3745 499.13 55.3745Z" fill="white"/>
<path d="M487.646 55.3745C484.727 55.3745 482.969 53.3335 482.969 50.1401V50.1304C482.969 46.9858 484.766 44.8276 487.539 44.8276C490.312 44.8276 492.002 46.8882 492.002 49.9351V50.5601H484.688C484.727 52.6499 485.879 53.8706 487.686 53.8706C488.975 53.8706 489.883 53.2261 490.176 52.3569L490.205 52.269H491.875L491.855 52.3667C491.523 54.0464 489.863 55.3745 487.646 55.3745ZM487.529 46.3315C486.055 46.3315 484.902 47.3374 484.717 49.2319H490.273C490.107 47.2593 489.014 46.3315 487.529 46.3315Z" fill="white"/>
<path d="M477.111 55.1792V42.6694H472.668V41.0874H483.312V42.6694H478.869V55.1792H477.111Z" fill="white"/>
<path d="M461.254 55.1792V46.4292H459.838V45.0229H461.254V43.7729C461.254 41.8198 462.162 40.8921 464.037 40.8921C464.418 40.8921 464.818 40.9214 465.072 40.9604V42.3374C464.867 42.3081 464.604 42.2983 464.34 42.2983C463.402 42.2983 462.934 42.7769 462.934 43.7827V45.0229H465.023V46.4292H462.953V55.1792H461.254Z" fill="white"/>
<path d="M453.091 55.3745C450.269 55.3745 448.384 53.3335 448.384 50.1011V50.0815C448.384 46.8491 450.278 44.8276 453.081 44.8276C455.884 44.8276 457.788 46.8394 457.788 50.0815V50.1011C457.788 53.3433 455.894 55.3745 453.091 55.3745ZM453.101 53.8706C454.888 53.8706 456.05 52.4839 456.05 50.1011V50.0815C456.05 47.6987 454.878 46.3315 453.081 46.3315C451.313 46.3315 450.122 47.7085 450.122 50.0815V50.1011C450.122 52.4937 451.304 53.8706 453.101 53.8706Z" fill="white"/>
<path d="M436.307 55.3745C433.387 55.3745 431.629 53.3335 431.629 50.1401V50.1304C431.629 46.9858 433.426 44.8276 436.199 44.8276C438.973 44.8276 440.662 46.8882 440.662 49.9351V50.5601H433.348C433.387 52.6499 434.539 53.8706 436.346 53.8706C437.635 53.8706 438.543 53.2261 438.836 52.3569L438.865 52.269H440.535L440.516 52.3667C440.184 54.0464 438.523 55.3745 436.307 55.3745ZM436.189 46.3315C434.715 46.3315 433.562 47.3374 433.377 49.2319H438.934C438.768 47.2593 437.674 46.3315 436.189 46.3315Z" fill="white"/>
<path d="M428.485 55.3745C426.62 55.3745 425.702 54.5347 425.702 52.5913V46.4292H424.218V45.0229H425.702V42.2788H427.46V45.0229H429.394V46.4292H427.46V52.5815C427.46 53.6655 427.938 53.9683 428.847 53.9683C429.052 53.9683 429.247 53.939 429.394 53.9292V55.3062C429.179 55.3354 428.817 55.3745 428.485 55.3745Z" fill="white"/>
<path d="M416.904 55.3745C414.678 55.3745 413.389 53.9292 413.389 51.6147V45.0229H415.088V51.312C415.088 52.9624 415.859 53.8706 417.422 53.8706C419.023 53.8706 420.068 52.728 420.068 50.9995V45.0229H421.768V55.1792H420.068V53.7339H420.029C419.482 54.6812 418.447 55.3745 416.904 55.3745Z" fill="white"/>
<path d="M409.503 55.3745C407.638 55.3745 406.72 54.5347 406.72 52.5913V46.4292H405.235V45.0229H406.72V42.2788H408.478V45.0229H410.411V46.4292H408.478V52.5815C408.478 53.6655 408.956 53.9683 409.864 53.9683C410.069 53.9683 410.265 53.939 410.411 53.9292V55.3062C410.196 55.3354 409.835 55.3745 409.503 55.3745Z" fill="white"/>
<path d="M401.838 43.3042C401.252 43.3042 400.773 42.8257 400.773 42.2397C400.773 41.644 401.252 41.1753 401.838 41.1753C402.434 41.1753 402.902 41.644 402.902 42.2397C402.902 42.8257 402.434 43.3042 401.838 43.3042ZM400.988 55.1792V45.0229H402.688V55.1792H400.988Z" fill="white"/>
<path d="M396.947 55.3745C395.082 55.3745 394.164 54.5347 394.164 52.5913V46.4292H392.68V45.0229H394.164V42.2788H395.922V45.0229H397.855V46.4292H395.922V52.5815C395.922 53.6655 396.4 53.9683 397.309 53.9683C397.514 53.9683 397.709 53.939 397.855 53.9292V55.3062C397.641 55.3354 397.279 55.3745 396.947 55.3745Z" fill="white"/>
<path d="M386.733 55.3745C384.341 55.3745 382.896 54.1538 382.69 52.3374L382.681 52.2495H384.38L384.399 52.3472C384.604 53.3628 385.356 53.9585 386.743 53.9585C388.12 53.9585 388.94 53.3823 388.94 52.4644V52.4546C388.94 51.7222 388.56 51.312 387.407 51.0288L385.796 50.6382C383.882 50.1792 382.954 49.2905 382.954 47.8257V47.8159C382.954 46.0679 384.487 44.8276 386.685 44.8276C388.911 44.8276 390.327 46.1265 390.454 47.8257L390.464 47.9526H388.843L388.833 47.8843C388.696 46.8979 387.944 46.2437 386.685 46.2437C385.454 46.2437 384.692 46.8394 384.692 47.7378V47.7476C384.692 48.4409 385.151 48.9194 386.274 49.1929L387.886 49.5835C389.937 50.0815 390.679 50.8921 390.679 52.3374V52.3472C390.679 54.1245 388.999 55.3745 386.733 55.3745Z" fill="white"/>
<path d="M371.383 55.1792V45.0229H373.082V46.4683H373.121C373.668 45.521 374.703 44.8276 376.246 44.8276C378.473 44.8276 379.762 46.2729 379.762 48.5874V55.1792H378.062V48.8901C378.062 47.2397 377.291 46.3315 375.729 46.3315C374.127 46.3315 373.082 47.4741 373.082 49.2026V55.1792H371.383Z" fill="white"/>
<path d="M365.954 55.1792V41.0874H367.712V55.1792H365.954Z" fill="white"/>
<path d="M353.477 55.3745C351.084 55.3745 349.639 54.1538 349.434 52.3374L349.424 52.2495H351.123L351.143 52.3472C351.348 53.3628 352.1 53.9585 353.486 53.9585C354.863 53.9585 355.684 53.3823 355.684 52.4644V52.4546C355.684 51.7222 355.303 51.312 354.15 51.0288L352.539 50.6382C350.625 50.1792 349.697 49.2905 349.697 47.8257V47.8159C349.697 46.0679 351.23 44.8276 353.428 44.8276C355.654 44.8276 357.07 46.1265 357.197 47.8257L357.207 47.9526H355.586L355.576 47.8843C355.439 46.8979 354.688 46.2437 353.428 46.2437C352.197 46.2437 351.436 46.8394 351.436 47.7378V47.7476C351.436 48.4409 351.895 48.9194 353.018 49.1929L354.629 49.5835C356.68 50.0815 357.422 50.8921 357.422 52.3374V52.3472C357.422 54.1245 355.742 55.3745 353.477 55.3745Z" fill="white"/>
<path d="M338.126 55.1792V45.0229H339.825V46.4683H339.864C340.411 45.521 341.446 44.8276 342.989 44.8276C345.216 44.8276 346.505 46.2729 346.505 48.5874V55.1792H344.806V48.8901C344.806 47.2397 344.034 46.3315 342.472 46.3315C340.87 46.3315 339.825 47.4741 339.825 49.2026V55.1792H338.126Z" fill="white"/>
<path d="M330.51 55.3745C327.688 55.3745 325.803 53.3335 325.803 50.1011V50.0815C325.803 46.8491 327.697 44.8276 330.5 44.8276C333.303 44.8276 335.207 46.8394 335.207 50.0815V50.1011C335.207 53.3433 333.312 55.3745 330.51 55.3745ZM330.52 53.8706C332.307 53.8706 333.469 52.4839 333.469 50.1011V50.0815C333.469 47.6987 332.297 46.3315 330.5 46.3315C328.732 46.3315 327.541 47.7085 327.541 50.0815V50.1011C327.541 52.4937 328.723 53.8706 330.52 53.8706Z" fill="white"/>
<path d="M321.937 43.3042C321.351 43.3042 320.872 42.8257 320.872 42.2397C320.872 41.644 321.351 41.1753 321.937 41.1753C322.532 41.1753 323.001 41.644 323.001 42.2397C323.001 42.8257 322.532 43.3042 321.937 43.3042ZM321.087 55.1792V45.0229H322.786V55.1792H321.087Z" fill="white"/>
<path d="M317.045 55.3745C315.18 55.3745 314.262 54.5347 314.262 52.5913V46.4292H312.777V45.0229H314.262V42.2788H316.02V45.0229H317.953V46.4292H316.02V52.5815C316.02 53.6655 316.498 53.9683 317.406 53.9683C317.611 53.9683 317.807 53.939 317.953 53.9292V55.3062C317.738 55.3354 317.377 55.3745 317.045 55.3745Z" fill="white"/>
<path d="M305.475 55.3745C303.453 55.3745 302.096 54.1538 302.096 52.3081V52.2886C302.096 50.5601 303.443 49.4761 305.777 49.3394L308.688 49.1733V48.3237C308.688 47.0835 307.877 46.3315 306.461 46.3315C305.152 46.3315 304.332 46.9565 304.137 47.8647L304.117 47.9526H302.477L302.486 47.8452C302.633 46.1753 304.088 44.8276 306.48 44.8276C308.883 44.8276 310.387 46.1265 310.387 48.1577V55.1792H308.688V53.5288H308.648C308.053 54.6421 306.832 55.3745 305.475 55.3745ZM303.834 52.3081C303.834 53.2847 304.635 53.8999 305.855 53.8999C307.457 53.8999 308.688 52.7964 308.688 51.3218V50.4917L305.973 50.6577C304.615 50.7358 303.834 51.3413 303.834 52.2886V52.3081Z" fill="white"/>
<path d="M295.495 55.3745C292.614 55.3745 290.788 53.3237 290.788 50.0913V50.0815C290.788 46.8784 292.653 44.8276 295.476 44.8276C298.005 44.8276 299.499 46.5073 299.714 48.2456L299.724 48.3237H298.063L298.044 48.2456C297.79 47.23 296.97 46.3315 295.476 46.3315C293.708 46.3315 292.526 47.7964 292.526 50.1011V50.1108C292.526 52.4741 293.737 53.8706 295.495 53.8706C296.882 53.8706 297.771 53.0894 298.054 51.9565L298.073 51.8784H299.743L299.733 51.9468C299.46 53.8804 297.79 55.3745 295.495 55.3745Z" fill="white"/>
<path d="M286.922 43.3042C286.336 43.3042 285.857 42.8257 285.857 42.2397C285.857 41.644 286.336 41.1753 286.922 41.1753C287.518 41.1753 287.986 41.644 287.986 42.2397C287.986 42.8257 287.518 43.3042 286.922 43.3042ZM286.072 55.1792V45.0229H287.771V55.1792H286.072Z" fill="white"/>
<path d="M274.218 55.1792V45.0229H275.917V46.4683H275.956C276.503 45.521 277.538 44.8276 279.081 44.8276C281.308 44.8276 282.597 46.2729 282.597 48.5874V55.1792H280.897V48.8901C280.897 47.2397 280.126 46.3315 278.563 46.3315C276.962 46.3315 275.917 47.4741 275.917 49.2026V55.1792H274.218Z" fill="white"/>
<path d="M265.938 55.3745C263.711 55.3745 262.422 53.9292 262.422 51.6147V45.0229H264.121V51.312C264.121 52.9624 264.893 53.8706 266.455 53.8706C268.057 53.8706 269.102 52.728 269.102 50.9995V45.0229H270.801V55.1792H269.102V53.7339H269.062C268.516 54.6812 267.48 55.3745 265.938 55.3745Z" fill="white"/>
<path d="M245.197 55.1792V45.0229H246.896V46.5073H246.936C247.395 45.5015 248.41 44.8276 249.719 44.8276C251.105 44.8276 252.131 45.5405 252.57 46.7808H252.609C253.176 45.5601 254.367 44.8276 255.793 44.8276C257.805 44.8276 259.104 46.146 259.104 48.1675V55.1792H257.404V48.5581C257.404 47.1616 256.633 46.3315 255.295 46.3315C253.947 46.3315 253 47.3374 253 48.7241V55.1792H251.301V48.3726C251.301 47.1421 250.48 46.3315 249.221 46.3315C247.873 46.3315 246.896 47.396 246.896 48.812V55.1792H245.197Z" fill="white"/>
<path d="M227.923 55.1792V45.0229H229.622V46.5073H229.661C230.12 45.5015 231.136 44.8276 232.444 44.8276C233.831 44.8276 234.856 45.5405 235.296 46.7808H235.335C235.901 45.5601 237.093 44.8276 238.519 44.8276C240.53 44.8276 241.829 46.146 241.829 48.1675V55.1792H240.13V48.5581C240.13 47.1616 239.358 46.3315 238.021 46.3315C236.673 46.3315 235.726 47.3374 235.726 48.7241V55.1792H234.026V48.3726C234.026 47.1421 233.206 46.3315 231.946 46.3315C230.599 46.3315 229.622 47.396 229.622 48.812V55.1792H227.923Z" fill="white"/>
<path d="M220.307 55.3745C217.484 55.3745 215.6 53.3335 215.6 50.1011V50.0815C215.6 46.8491 217.494 44.8276 220.297 44.8276C223.1 44.8276 225.004 46.8394 225.004 50.0815V50.1011C225.004 53.3433 223.109 55.3745 220.307 55.3745ZM220.316 53.8706C222.104 53.8706 223.266 52.4839 223.266 50.1011V50.0815C223.266 47.6987 222.094 46.3315 220.297 46.3315C218.529 46.3315 217.338 47.7085 217.338 50.0815V50.1011C217.338 52.4937 218.52 53.8706 220.316 53.8706Z" fill="white"/>
<path d="M209.087 55.3745C206.206 55.3745 204.38 53.3237 204.38 50.0913V50.0815C204.38 46.8784 206.245 44.8276 209.067 44.8276C211.597 44.8276 213.091 46.5073 213.306 48.2456L213.315 48.3237H211.655L211.636 48.2456C211.382 47.23 210.562 46.3315 209.067 46.3315C207.3 46.3315 206.118 47.7964 206.118 50.1011V50.1108C206.118 52.4741 207.329 53.8706 209.087 53.8706C210.474 53.8706 211.362 53.0894 211.646 51.9565L211.665 51.8784H213.335L213.325 51.9468C213.052 53.8804 211.382 55.3745 209.087 55.3745Z" fill="white"/>
<path d="M197.604 55.3745C194.684 55.3745 192.926 53.3335 192.926 50.1401V50.1304C192.926 46.9858 194.723 44.8276 197.496 44.8276C200.27 44.8276 201.959 46.8882 201.959 49.9351V50.5601H194.645C194.684 52.6499 195.836 53.8706 197.643 53.8706C198.932 53.8706 199.84 53.2261 200.133 52.3569L200.162 52.269H201.832L201.813 52.3667C201.48 54.0464 199.82 55.3745 197.604 55.3745ZM197.486 46.3315C196.012 46.3315 194.859 47.3374 194.674 49.2319H200.23C200.064 47.2593 198.971 46.3315 197.486 46.3315Z" fill="white"/>
<path d="M188.23 55.1792V41.0874H189.93V55.1792H188.23Z" fill="white"/>
<path d="M180.868 55.3745C177.948 55.3745 176.19 53.3335 176.19 50.1401V50.1304C176.19 46.9858 177.987 44.8276 180.761 44.8276C183.534 44.8276 185.224 46.8882 185.224 49.9351V50.5601H177.909C177.948 52.6499 179.101 53.8706 180.907 53.8706C182.196 53.8706 183.104 53.2261 183.397 52.3569L183.427 52.269H185.097L185.077 52.3667C184.745 54.0464 183.085 55.3745 180.868 55.3745ZM180.751 46.3315C179.276 46.3315 178.124 47.3374 177.938 49.2319H183.495C183.329 47.2593 182.235 46.3315 180.751 46.3315Z" fill="white"/>
<path d="M170.332 55.1792V42.6694H165.889V41.0874H176.533V42.6694H172.09V55.1792H170.332Z" fill="white"/>
<path d="M152.746 55.3745C150.148 55.3745 148.43 53.3042 148.43 50.1011V50.0913C148.43 46.8882 150.168 44.8276 152.717 44.8276C154.152 44.8276 155.334 45.5503 155.969 46.7222H156.008V41.0874H157.707V55.1792H156.008V53.4604H155.969C155.334 54.6421 154.201 55.3745 152.746 55.3745ZM153.078 53.8706C154.797 53.8706 156.018 52.3765 156.018 50.1011V50.0913C156.018 47.8257 154.787 46.3315 153.078 46.3315C151.281 46.3315 150.168 47.7769 150.168 50.0913V50.1011C150.168 52.4351 151.281 53.8706 153.078 53.8706Z" fill="white"/>
<path d="M137.182 55.1792V45.0229H138.881V46.4683H138.92C139.467 45.521 140.502 44.8276 142.045 44.8276C144.271 44.8276 145.561 46.2729 145.561 48.5874V55.1792H143.861V48.8901C143.861 47.2397 143.09 46.3315 141.527 46.3315C139.926 46.3315 138.881 47.4741 138.881 49.2026V55.1792H137.182Z" fill="white"/>
<path d="M128.911 55.3745C126.89 55.3745 125.532 54.1538 125.532 52.3081V52.2886C125.532 50.5601 126.88 49.4761 129.214 49.3394L132.124 49.1733V48.3237C132.124 47.0835 131.313 46.3315 129.897 46.3315C128.589 46.3315 127.769 46.9565 127.573 47.8647L127.554 47.9526H125.913L125.923 47.8452C126.069 46.1753 127.524 44.8276 129.917 44.8276C132.319 44.8276 133.823 46.1265 133.823 48.1577V55.1792H132.124V53.5288H132.085C131.489 54.6421 130.269 55.3745 128.911 55.3745ZM127.271 52.3081C127.271 53.2847 128.071 53.8999 129.292 53.8999C130.894 53.8999 132.124 52.7964 132.124 51.3218V50.4917L129.409 50.6577C128.052 50.7358 127.271 51.3413 127.271 52.2886V52.3081Z" fill="white"/>
<path d="M113.728 55.3745C111.335 55.3745 109.89 54.1538 109.685 52.3374L109.675 52.2495H111.374L111.394 52.3472C111.599 53.3628 112.351 53.9585 113.737 53.9585C115.114 53.9585 115.935 53.3823 115.935 52.4644V52.4546C115.935 51.7222 115.554 51.312 114.401 51.0288L112.79 50.6382C110.876 50.1792 109.948 49.2905 109.948 47.8257V47.8159C109.948 46.0679 111.481 44.8276 113.679 44.8276C115.905 44.8276 117.321 46.1265 117.448 47.8257L117.458 47.9526H115.837L115.827 47.8843C115.69 46.8979 114.938 46.2437 113.679 46.2437C112.448 46.2437 111.687 46.8394 111.687 47.7378V47.7476C111.687 48.4409 112.146 48.9194 113.269 49.1929L114.88 49.5835C116.931 50.0815 117.673 50.8921 117.673 52.3374V52.3472C117.673 54.1245 115.993 55.3745 113.728 55.3745Z" fill="white"/>
<path d="M106.189 55.3745C104.324 55.3745 103.406 54.5347 103.406 52.5913V46.4292H101.922V45.0229H103.406V42.2788H105.164V45.0229H107.098V46.4292H105.164V52.5815C105.164 53.6655 105.643 53.9683 106.551 53.9683C106.756 53.9683 106.951 53.939 107.098 53.9292V55.3062C106.883 55.3354 106.521 55.3745 106.189 55.3745Z" fill="white"/>
<path d="M95.9766 55.3745C93.584 55.3745 92.1387 54.1538 91.9336 52.3374L91.9238 52.2495H93.623L93.6426 52.3472C93.8477 53.3628 94.5996 53.9585 95.9863 53.9585C97.3633 53.9585 98.1836 53.3823 98.1836 52.4644V52.4546C98.1836 51.7222 97.8027 51.312 96.6504 51.0288L95.0391 50.6382C93.125 50.1792 92.1973 49.2905 92.1973 47.8257V47.8159C92.1973 46.0679 93.7305 44.8276 95.9277 44.8276C98.1543 44.8276 99.5703 46.1265 99.6973 47.8257L99.707 47.9526H98.0859L98.0762 47.8843C97.9395 46.8979 97.1875 46.2437 95.9277 46.2437C94.6973 46.2437 93.9355 46.8394 93.9355 47.7378V47.7476C93.9355 48.4409 94.3945 48.9194 95.5176 49.1929L97.1289 49.5835C99.1797 50.0815 99.9219 50.8921 99.9219 52.3374V52.3472C99.9219 54.1245 98.2422 55.3745 95.9766 55.3745Z" fill="white"/>
<path d="M84.7568 55.3745C81.9346 55.3745 80.0498 53.3335 80.0498 50.1011V50.0815C80.0498 46.8491 81.9443 44.8276 84.7471 44.8276C87.5498 44.8276 89.4541 46.8394 89.4541 50.0815V50.1011C89.4541 53.3433 87.5596 55.3745 84.7568 55.3745ZM84.7666 53.8706C86.5537 53.8706 87.7158 52.4839 87.7158 50.1011V50.0815C87.7158 47.6987 86.5439 46.3315 84.7471 46.3315C82.9795 46.3315 81.7881 47.7085 81.7881 50.0815V50.1011C81.7881 52.4937 82.9697 53.8706 84.7666 53.8706Z" fill="white"/>
<path d="M68.5371 55.1792V41.0874H73.5566C76.2031 41.0874 78.0781 42.9136 78.0781 45.5894V45.6089C78.0781 48.2847 76.2031 50.1499 73.5566 50.1499H70.2949V55.1792H68.5371ZM73.1074 42.6499H70.2949V48.5874H73.1074C75.1191 48.5874 76.2812 47.4839 76.2812 45.6284V45.6089C76.2812 43.7534 75.1191 42.6499 73.1074 42.6499Z" fill="white"/>
<defs>
<clipPath id="clip0_286_2642">
<rect width="52.5373" height="64" fill="white"/>
</clipPath>
</defs>
</svg>
