<svg width="300" height="48" viewBox="0 0 300 48" fill="none" xmlns="http://www.w3.org/2000/svg">
<g clip-path="url(#clip0_286_1334)">
<path d="M24.5674 0.740004C26.8505 0.194487 29.3034 0.520004 31.4111 1.5138C32.6611 2.21862 33.5231 3.4469 33.9822 4.76552C34.6639 6.70966 34.6914 8.80552 34.5287 10.8345C34.2519 13.7876 33.5329 16.6931 32.5055 19.48C32.1442 20.4262 31.7611 21.371 31.2442 22.2483C31.1407 22.4248 31.028 22.5979 30.8815 22.7441C31.4005 21.4131 31.7998 20.04 32.1343 18.6545C32.597 16.6766 32.9026 14.6531 32.8801 12.62C32.866 10.6717 32.5357 8.67242 31.5632 6.94966C30.5569 5.14966 28.7562 3.77104 26.6998 3.33725C24.9794 2.97242 23.1822 3.31242 21.5836 3.97794C19.4386 4.87311 17.5519 6.26759 15.847 7.80828C14.9759 8.60276 14.159 9.45311 13.3857 10.3393C14.5414 8.33449 15.978 6.48138 17.635 4.84759C19.5597 2.96621 21.8864 1.36 24.5674 0.740004Z" fill="#DE221A"/>
<path d="M18.2411 3.47517C15.2911 6.27862 12.7996 9.53379 10.7806 13.0366C9.61507 15.0828 8.61859 17.2235 7.8545 19.4448C7.13126 21.509 6.63126 23.6455 6.31788 25.8055C6.04324 27.6483 5.92 29.5172 6.03901 31.3779C6.17422 33.2435 6.57 35.1324 7.51577 36.7759C8.24817 38.0324 9.34746 39.1793 10.7869 39.6297C10.7094 39.7117 10.5876 39.7159 10.4848 39.7497C9.14535 40.1055 7.69957 40.2166 6.35169 39.8407C5.31155 39.5552 4.38267 38.9076 3.77141 38.0352C2.96436 36.8966 2.64253 35.5041 2.51788 34.1434C2.33479 31.78 2.67633 29.4124 3.1707 27.1034C3.51718 25.5034 3.95239 23.9235 4.43972 22.36C4.5531 22.0138 4.64253 21.6579 4.79394 21.3248C5.75662 19.2021 6.86648 17.1448 8.07633 15.1476C9.64817 12.5731 11.408 10.1014 13.4327 7.8469C14.882 6.23862 16.4707 4.74138 18.2411 3.47517Z" fill="#DE221A"/>
<path d="M31.1455 23.0938C33.442 23.0779 35.7392 23.0904 38.0364 23.0876C38.0371 23.6317 38.0364 24.1752 38.0371 24.7193C37.1807 24.7235 36.3237 24.7159 35.4673 24.7235C35.4723 27.3931 35.4659 30.0628 35.4702 32.7331C34.8892 32.7352 34.3082 32.7255 33.7279 32.7379C33.7054 30.0662 33.7223 27.3931 33.7187 24.7207C32.861 24.7173 32.0033 24.7255 31.1455 24.7166C31.1533 24.1759 31.1533 23.6345 31.1455 23.0938Z" fill="#DE221A"/>
<path d="M8.83555 23.209C9.95175 23.211 11.0687 23.2097 12.1856 23.2103C12.8208 23.2166 13.4588 23.2221 14.0898 23.3062C14.8701 23.4186 15.5553 23.9331 15.9299 24.6041C16.2123 25.1131 16.2961 25.7041 16.2827 26.2766C16.2658 26.8228 16.1412 27.3807 15.8236 27.8379C15.3898 28.5172 14.6179 28.9662 13.8095 29.0538C12.8116 29.1738 11.8046 29.1352 10.8025 29.1386C10.8017 30.3338 10.7933 31.5297 10.8067 32.7255C10.1489 32.7393 9.49048 32.7324 8.83203 32.729C8.84189 29.5559 8.83485 26.3821 8.83555 23.209ZM10.7975 24.8276C10.8032 25.7248 10.801 26.6221 10.7989 27.5193C11.5377 27.5317 12.2806 27.5435 13.0172 27.4662C13.3778 27.429 13.7356 27.2759 13.9687 26.9966C14.3032 26.5966 14.3503 26.0007 14.1151 25.5435C13.8947 25.1303 13.4271 24.8883 12.9616 24.8607C12.2419 24.8138 11.5187 24.8048 10.7975 24.8276Z" fill="#DE221A"/>
<path d="M16.5615 23.2186C18.8594 23.2041 21.1587 23.2138 23.4573 23.2138C23.4566 23.7572 23.4573 24.3 23.4566 24.8435C22.5974 24.8545 21.7376 24.829 20.8791 24.8566C20.8974 27.5235 20.8848 30.1917 20.8855 32.8593C20.3017 32.8524 19.7186 32.8579 19.1355 32.8566C19.1383 30.1862 19.1348 27.5159 19.1376 24.8455C18.2805 24.8435 17.4235 24.8462 16.5665 24.8448C16.5665 24.3021 16.5756 23.76 16.5615 23.2186Z" fill="#DE221A"/>
<path d="M26.2421 26.8186C26.9069 27.4662 27.5709 28.1145 28.2301 28.7683C28.2231 30.0897 28.2294 31.4117 28.2273 32.7331C27.5646 32.7759 26.9019 32.8124 26.2393 32.8572C26.2428 30.8441 26.2378 28.8317 26.2421 26.8186Z" fill="#DE221A"/>
<path d="M24.0694 30.54C24.7426 29.6159 25.387 28.6345 25.6891 27.5269C25.7229 29.1352 25.6827 30.7435 25.7039 32.3524C25.7025 32.4379 25.6468 32.509 25.6109 32.5841C24.3933 34.8255 22.5081 36.6448 20.4616 38.1683C19.0581 39.2062 17.5518 40.1069 15.994 40.9055C14.9968 41.4221 13.9475 41.8504 12.8504 42.1138C11.4398 42.4552 9.94261 42.5138 8.52641 42.171C6.68908 41.7317 5.03063 40.6469 3.875 39.1862C4.74261 40.0559 5.95458 40.5297 7.175 40.6607C8.78627 40.8414 10.4095 40.4876 11.9102 39.9248C14.2489 39.0366 16.337 37.6324 18.2982 36.1214C20.4222 34.4786 22.4532 32.6779 24.0694 30.54Z" fill="#DE221A"/>
<path d="M0.807774 43.2517C6.38453 43.2593 11.962 43.2545 17.5388 43.2545C18.3458 43.2407 19.2359 43.2441 19.9141 43.7352C20.569 43.2235 21.4564 43.2421 22.25 43.2497C27.724 43.2524 33.1972 43.2524 38.6705 43.2504C38.6698 43.4924 38.6761 43.7352 38.6655 43.9786C33.055 43.9793 27.4444 43.9814 21.8338 43.9759C21.381 43.9807 20.9 44.0028 20.4979 44.2269C20.381 44.2848 20.3127 44.3959 20.2613 44.509C20.0219 44.5179 19.7831 44.5297 19.5444 44.5462C19.5275 44.3055 19.2873 44.191 19.081 44.1269C18.4219 43.9179 17.7204 43.9952 17.0402 43.9841C11.6296 43.9869 6.21904 43.9779 0.808478 43.9883C0.802844 43.7428 0.804252 43.4973 0.807774 43.2517Z" fill="#DE221A"/>
<path d="M0.804688 44.5117C6.52511 44.5145 12.2448 44.5124 17.9646 44.5124C18.5709 44.5517 19.1561 44.8414 19.53 45.3138C19.5315 46.0697 19.5307 46.8262 19.53 47.5821C19.1561 46.9228 18.3279 46.7083 17.6089 46.7076C12.0082 46.7242 6.40751 46.7531 0.807504 46.7883C0.803279 46.0297 0.808209 45.2704 0.804688 44.5117Z" fill="#DE221A"/>
<path d="M19.9424 45.3207C20.3184 44.8317 20.9248 44.5435 21.5445 44.5104C27.2494 44.5131 32.9551 44.5179 38.66 44.5083C38.6867 45.2662 38.6635 46.0262 38.6713 46.7848C33.0565 46.7579 27.4417 46.7207 21.8262 46.7083C21.1198 46.7145 20.3206 46.9345 19.9452 47.5724C19.9424 46.8221 19.9494 46.071 19.9424 45.3207Z" fill="#DE221A"/>
<path d="M29.2297 18.3083C29.2529 18.2207 29.3036 18.1435 29.3487 18.0648C29.1311 19.7476 28.855 21.4241 28.6191 23.1055C28.1586 23.329 27.7248 23.6062 27.2529 23.8076C27.7832 22.3104 28.3452 20.8241 28.8881 19.331C29.0057 18.991 29.1586 18.6621 29.2297 18.3083Z" fill="#B89C0E"/>
<path d="M24.1533 23.1152C24.8787 23.4297 25.5928 23.7697 26.3167 24.0869C26.4132 24.1262 26.5019 24.1821 26.5829 24.2476C26.0829 24.4303 25.5808 24.6076 25.0808 24.791C24.7695 24.2338 24.4428 23.6834 24.1533 23.1152Z" fill="#B89C0E"/>
<path d="M23.0927 28.2007C24.3399 27.0152 25.5716 25.8131 26.8265 24.6359C27.2814 25.7469 27.7659 26.8483 28.1835 27.9724C27.6603 27.4152 27.1638 26.8331 26.6617 26.2572C25.4237 26.9545 24.2166 27.7083 22.9688 28.3876C23.0026 28.3207 23.0357 28.2517 23.0927 28.2007Z" fill="#B89C0E"/>
<path d="M26.566 23.0703C27.4541 21.4834 28.3203 19.8834 29.2294 18.3083C29.1583 18.6621 29.0055 18.991 28.8879 19.331C28.3449 20.8241 27.7829 22.3103 27.2527 23.8076C27.7245 23.6062 28.1583 23.329 28.6189 23.1055C29.3534 23.0814 30.0893 23.1041 30.8245 23.0752C30.8266 23.0938 30.8315 23.1303 30.8336 23.149C30.8182 23.1517 30.7879 23.1572 30.7724 23.1607C30.6372 23.1848 30.5034 23.2117 30.3738 23.2559C29.2815 23.6331 28.1843 23.9959 27.0921 24.3724C27.4513 24.5786 27.8541 24.6972 28.228 24.8752C28.2224 25.9303 28.2365 26.9862 28.221 28.0414C28.2111 28.0241 28.1928 27.9897 28.1836 27.9724C27.766 26.8483 27.2815 25.7469 26.8266 24.6359C25.5717 25.8131 24.34 27.0152 23.0928 28.2007C23.0358 28.2517 23.0027 28.3207 22.9689 28.3876C22.9266 28.4648 22.8203 28.4786 22.752 28.5269C23.5372 27.2876 24.3012 26.0345 25.0808 24.791C25.5808 24.6076 26.0829 24.4303 26.5829 24.2476C26.502 24.1821 26.4132 24.1262 26.3167 24.0869C25.5928 23.7697 24.8787 23.4297 24.1534 23.1152L24.1266 23.1041C24.9393 23.0841 25.7527 23.0903 26.566 23.0703Z" fill="#EFF003"/>
<path d="M30.3745 23.2559C30.504 23.2117 30.6378 23.1848 30.7731 23.1607C29.9329 23.7434 29.0766 24.3041 28.2287 24.8752C27.8547 24.6972 27.4519 24.5786 27.0928 24.3724C28.185 23.9959 29.2822 23.6331 30.3745 23.2559Z" fill="#B89C0D"/>
</g>
<path d="M296.836 15.4596C295.057 15.4596 293.937 14.668 293.747 13.6415L293.735 13.5859H295.285L295.304 13.6354C295.475 14.0126 296.013 14.297 296.836 14.297C297.861 14.297 298.424 13.7652 298.424 12.9304V11.9843H298.393C298.019 12.6831 297.26 13.1283 296.298 13.1283C294.614 13.1283 293.532 11.8668 293.532 9.82617V9.81999C293.532 7.74843 294.627 6.47458 296.323 6.47458C297.272 6.47458 298.007 6.96928 298.386 7.7237H298.424V6.61062H300V12.9799C300 14.464 298.779 15.4596 296.836 15.4596ZM296.791 11.941C297.772 11.941 298.431 11.1309 298.431 9.85709V9.8509C298.431 8.58324 297.766 7.77317 296.791 7.77317C295.779 7.77317 295.14 8.57087 295.14 9.84472V9.8509C295.14 11.1433 295.779 11.941 296.791 11.941Z" fill="#BC2826"/>
<path d="M286.312 13.1654V6.61062H287.887V7.63712H287.919C288.267 6.93218 288.951 6.47458 289.969 6.47458C291.444 6.47458 292.286 7.40214 292.286 8.92334V13.1654H290.71V9.23253C290.71 8.29878 290.267 7.77317 289.368 7.77317C288.463 7.77317 287.887 8.41627 287.887 9.36239V13.1654H286.312Z" fill="#BC2826"/>
<path d="M279.648 5.86856L281.116 3.85266H282.464L283.945 5.86856H282.749L281.787 4.57616L280.844 5.86856H279.648ZM281.793 13.2952C279.819 13.2952 278.547 12.009 278.547 9.888V9.87563C278.547 7.77316 279.838 6.47457 281.787 6.47457C283.743 6.47457 285.04 7.76079 285.04 9.87563V9.888C285.04 12.0152 283.762 13.2952 281.793 13.2952ZM281.8 12.0523C282.793 12.0523 283.433 11.2608 283.433 9.888V9.87563C283.433 8.50902 282.787 7.72369 281.787 7.72369C280.806 7.72369 280.154 8.51521 280.154 9.87563V9.888C280.154 11.267 280.794 12.0523 281.8 12.0523Z" fill="#BC2826"/>
<path d="M271.244 13.1654V4.24223H272.82V7.71131H272.858C273.206 6.92598 273.921 6.47457 274.927 6.47457C276.37 6.47457 277.294 7.50107 277.294 9.08411V13.1654H275.718V9.38711C275.718 8.37916 275.199 7.77315 274.295 7.77315C273.402 7.77315 272.82 8.43481 272.82 9.38711V13.1654H271.244Z" fill="#BC2826"/>
<path d="M269.079 13.2952C267.674 13.2952 267.01 12.7387 267.01 11.3907V7.7979H266.061V6.61062H267.01V4.94719H268.611V6.61062H269.858V7.7979H268.611V11.2608C268.611 11.9039 268.902 12.108 269.478 12.108C269.63 12.108 269.75 12.0894 269.858 12.0832V13.2396C269.674 13.2643 269.396 13.2952 269.079 13.2952Z" fill="#BC2826"/>
<path d="M256.233 13.1654V6.61062H257.809V7.63712H257.841C258.189 6.93218 258.872 6.47458 259.891 6.47458C261.366 6.47458 262.208 7.40214 262.208 8.92334V13.1654H260.632V9.23253C260.632 8.29878 260.189 7.77317 259.29 7.77317C258.385 7.77317 257.809 8.41627 257.809 9.36239V13.1654H256.233Z" fill="#BC2826"/>
<path d="M252.892 3.51256C252.481 3.51256 252.164 3.36415 251.924 3.191L251.658 3.00549C251.462 2.86326 251.272 2.75196 251.095 2.75196C250.823 2.75196 250.696 2.96839 250.696 3.45072V3.50019H249.747V3.41362C249.747 2.33146 250.183 1.78729 250.892 1.78729C251.297 1.78729 251.633 1.94189 251.867 2.11503L252.126 2.29436C252.329 2.44277 252.512 2.55408 252.696 2.55408C252.955 2.55408 253.095 2.33146 253.095 1.85531V1.79966H254.038V1.89242C254.038 2.97457 253.595 3.51256 252.892 3.51256ZM249.715 5.89948L251.202 4.00107H252.569L254.063 5.89948H252.86L251.88 4.65655L250.918 5.89948H249.715ZM251.924 13.2952C249.911 13.2952 248.696 11.9905 248.696 9.90655V9.90037C248.696 7.835 249.93 6.47457 251.848 6.47457C253.765 6.47457 254.955 7.79171 254.955 9.77051V10.2652H250.259C250.285 11.4154 250.93 12.0956 251.955 12.0956C252.74 12.0956 253.253 11.6875 253.405 11.2484L253.417 11.2051H254.892L254.873 11.2732C254.664 12.2811 253.677 13.2952 251.924 13.2952ZM251.867 7.6804C251.032 7.6804 250.405 8.23076 250.278 9.23871H253.424C253.31 8.19984 252.702 7.6804 251.867 7.6804Z" fill="#BC2826"/>
<path d="M246.589 5.67069C246.095 5.67069 245.709 5.2873 245.709 4.8297C245.709 4.35974 246.095 3.98253 246.589 3.98253C247.082 3.98253 247.462 4.35974 247.462 4.8297C247.462 5.2873 247.082 5.67069 246.589 5.67069ZM245.798 13.1654V6.61062H247.373V13.1654H245.798Z" fill="#BC2826"/>
<path d="M239.742 13.1654L236.578 4.24223H238.356L240.673 11.4648H240.704L243.027 4.24223H244.805L241.635 13.1654H239.742Z" fill="#BC2826"/>
<path d="M226.617 13.1654V4.24223H228.193V7.71131H228.231C228.579 6.92598 229.294 6.47457 230.3 6.47457C231.743 6.47457 232.667 7.50107 232.667 9.08411V13.1654H231.091V9.38711C231.091 8.37916 230.573 7.77315 229.668 7.77315C228.775 7.77315 228.193 8.43481 228.193 9.38711V13.1654H226.617Z" fill="#BC2826"/>
<path d="M219.073 13.1654V6.61062H220.649V7.63712H220.681C221.029 6.93218 221.712 6.47458 222.731 6.47458C224.206 6.47458 225.047 7.40214 225.047 8.92334V13.1654H223.472V9.23253C223.472 8.29878 223.029 7.77317 222.13 7.77317C221.225 7.77317 220.649 8.41627 220.649 9.36239V13.1654H219.073Z" fill="#BC2826"/>
<path d="M217.08 5.86856H215.979L217.112 3.85266H218.573L217.08 5.86856ZM215.896 13.1654V6.61061H217.472V13.1654H215.896Z" fill="#BC2826"/>
<path d="M208.271 13.1654V4.24223H209.847V7.71131H209.885C210.233 6.92598 210.948 6.47457 211.955 6.47457C213.398 6.47457 214.322 7.50107 214.322 9.08411V13.1654H212.746V9.38711C212.746 8.37916 212.227 7.77315 211.322 7.77315C210.43 7.77315 209.847 8.43481 209.847 9.38711V13.1654H208.271Z" fill="#BC2826"/>
<path d="M204.069 13.2953C202.076 13.2953 200.829 11.9843 200.829 9.88182V9.87564C200.829 7.78553 202.095 6.47458 204.05 6.47458C205.816 6.47458 206.917 7.5691 207.012 8.88006L207.018 8.92953H205.531L205.519 8.87387C205.386 8.23695 204.905 7.7237 204.069 7.7237C203.076 7.7237 202.437 8.54613 202.437 9.88801V9.89419C202.437 11.2608 203.082 12.0523 204.076 12.0523C204.873 12.0523 205.379 11.5885 205.525 10.9021L205.538 10.8465H207.025L207.018 10.8898C206.898 12.2564 205.765 13.2953 204.069 13.2953Z" fill="#BC2826"/>
<path d="M193.039 13.2952C191.564 13.2952 190.723 12.3677 190.723 10.8465V6.61061H192.298V10.5435C192.298 11.471 192.741 11.9967 193.64 11.9967C194.545 11.9967 195.121 11.3597 195.121 10.4074V6.61061H196.697V13.1654H195.121V12.1389H195.089C194.741 12.8376 194.051 13.2952 193.039 13.2952Z" fill="#BC2826"/>
<path d="M185.198 13.2952C183.724 13.2952 182.882 12.3677 182.882 10.8465V6.61061H184.458V10.5435C184.458 11.471 184.901 11.9967 185.799 11.9967C186.704 11.9967 187.28 11.3597 187.28 10.4074V6.61061C188.597 6.43747 188.881 6.05408 188.869 4.78641H190.134C190.134 6.11591 189.824 6.75902 188.856 7.11768V13.1654H187.28V12.1389H187.249C186.9 12.8376 186.211 13.2952 185.198 13.2952Z" fill="#BC2826"/>
<path d="M174.687 13.1654V4.24223H178.477C180.142 4.24223 181.211 5.12033 181.211 6.47457V6.48693C181.211 7.44541 180.471 8.30495 179.49 8.43481V8.46573C180.775 8.57704 181.648 9.45513 181.648 10.63V10.6424C181.648 12.2007 180.464 13.1654 178.515 13.1654H174.687ZM178.066 5.48517H176.319V8.01432H177.788C178.965 8.01432 179.597 7.54435 179.597 6.70336V6.691C179.597 5.91803 179.034 5.48517 178.066 5.48517ZM178.047 9.17068H176.319V11.9224H178.142C179.338 11.9224 179.984 11.4463 179.984 10.5497V10.5373C179.984 9.64064 179.325 9.17068 178.047 9.17068Z" fill="#BC2826"/>
<path d="M165.182 5.86856L166.656 3.85266H168.004L169.479 5.86856H168.289L167.321 4.57616L166.378 5.86856H165.182ZM167.365 13.2952C165.353 13.2952 164.138 11.9905 164.138 9.90655V9.90036C164.138 7.83499 165.372 6.47457 167.289 6.47457C169.207 6.47457 170.397 7.79171 170.397 9.77051V10.2652H165.701C165.726 11.4154 166.372 12.0956 167.397 12.0956C168.182 12.0956 168.694 11.6875 168.846 11.2484L168.859 11.2051H170.333L170.314 11.2732C170.106 12.2811 169.118 13.2952 167.365 13.2952ZM167.308 7.6804C166.473 7.6804 165.846 8.23075 165.72 9.2387H168.865C168.751 8.19983 168.144 7.6804 167.308 7.6804ZM167.372 15.7873C166.884 15.7873 166.498 15.4039 166.498 14.9463C166.498 14.4825 166.884 14.1053 167.372 14.1053C167.872 14.1053 168.251 14.4825 168.251 14.9463C168.251 15.4039 167.872 15.7873 167.372 15.7873Z" fill="#BC2826"/>
<path d="M156.834 13.1654V4.24223H158.41V7.71131H158.448C158.796 6.92598 159.511 6.47457 160.517 6.47457C161.96 6.47457 162.884 7.50107 162.884 9.08411V13.1654H161.308V9.38711C161.308 8.37916 160.789 7.77315 159.884 7.77315C158.992 7.77315 158.41 8.43481 158.41 9.38711V13.1654H156.834Z" fill="#BC2826"/>
<path d="M152.076 15.4596C150.298 15.4596 149.177 14.668 148.988 13.6415L148.975 13.5859H150.525L150.544 13.6354C150.715 14.0126 151.253 14.297 152.076 14.297C153.101 14.297 153.664 13.7652 153.664 12.9304V11.9843H153.633C153.259 12.6831 152.5 13.1283 151.538 13.1283C149.855 13.1283 148.772 11.8668 148.772 9.82617V9.81999C148.772 7.74843 149.867 6.47458 151.563 6.47458C152.513 6.47458 153.247 6.96928 153.626 7.7237H153.664V6.61062H155.24V12.9799C155.24 14.464 154.019 15.4596 152.076 15.4596ZM152.032 11.941C153.013 11.941 153.671 11.1309 153.671 9.85709V9.8509C153.671 8.58324 153.006 7.77317 152.032 7.77317C151.019 7.77317 150.38 8.57087 150.38 9.84472V9.8509C150.38 11.1433 151.019 11.941 152.032 11.941Z" fill="#BC2826"/>
<path d="M141.552 13.1654V6.61062H143.128V7.63712H143.159C143.507 6.93218 144.191 6.47458 145.21 6.47458C146.684 6.47458 147.526 7.40214 147.526 8.92334V13.1654H145.95V9.23253C145.95 8.29878 145.507 7.77317 144.608 7.77317C143.703 7.77317 143.128 8.41627 143.128 9.36239V13.1654H141.552Z" fill="#BC2826"/>
<path d="M133.983 15.4596C132.205 15.4596 131.085 14.668 130.895 13.6415L130.882 13.5859H132.433L132.452 13.6354C132.623 14.0126 133.16 14.297 133.983 14.297C135.008 14.297 135.572 13.7652 135.572 12.9304V11.9843H135.54C135.167 12.6831 134.407 13.1283 133.445 13.1283C131.762 13.1283 130.68 11.8668 130.68 9.82617V9.81999C130.68 7.74843 131.775 6.47458 133.471 6.47458C134.42 6.47458 135.154 6.96928 135.534 7.7237H135.572V6.61062H137.147V12.9799C137.147 14.464 135.926 15.4596 133.983 15.4596ZM133.939 11.941C134.92 11.941 135.578 11.1309 135.578 9.85709V9.8509C135.578 8.58324 134.913 7.77317 133.939 7.77317C132.926 7.77317 132.287 8.57087 132.287 9.84472V9.8509C132.287 11.1433 132.926 11.941 133.939 11.941Z" fill="#BC2826"/>
<path d="M123.459 13.1654V6.61062H125.035V7.63712H125.066C125.415 6.93218 126.098 6.47458 127.117 6.47458C128.591 6.47458 129.433 7.40214 129.433 8.92334V13.1654H127.857V9.23253C127.857 8.29878 127.414 7.77317 126.516 7.77317C125.611 7.77317 125.035 8.41627 125.035 9.36239V13.1654H123.459Z" fill="#BC2826"/>
<path d="M116.796 5.86856L118.264 3.85266H119.612L121.093 5.86856H119.896L118.935 4.57616L117.992 5.86856H116.796ZM118.941 13.2952C116.966 13.2952 115.694 12.009 115.694 9.888V9.87563C115.694 7.77316 116.985 6.47457 118.935 6.47457C120.89 6.47457 122.187 7.76079 122.187 9.87563V9.888C122.187 12.0152 120.909 13.2952 118.941 13.2952ZM118.947 12.0523C119.941 12.0523 120.58 11.2608 120.58 9.888V9.87563C120.58 8.50902 119.934 7.72369 118.935 7.72369C117.954 7.72369 117.302 8.51521 117.302 9.87563V9.888C117.302 11.267 117.941 12.0523 118.947 12.0523Z" fill="#BC2826"/>
<path d="M110.734 13.32C108.107 13.32 106.449 11.5514 106.449 8.70072V8.69454C106.449 5.84383 108.114 4.08765 110.734 4.08765C112.835 4.08765 114.379 5.36768 114.619 7.1857L114.626 7.24754H113.025L112.993 7.13005C112.727 6.10973 111.923 5.47281 110.734 5.47281C109.139 5.47281 108.12 6.71574 108.12 8.69454V8.70072C108.12 10.6857 109.145 11.9348 110.734 11.9348C111.898 11.9348 112.714 11.3226 113.012 10.2219L113.031 10.1601H114.632L114.619 10.2219C114.385 12.0523 112.835 13.32 110.734 13.32Z" fill="#BC2826"/>
<path d="M96.248 13.1654V6.61062H97.8239V7.63712H97.8555C98.2036 6.93218 98.8871 6.47458 99.906 6.47458C101.381 6.47458 102.222 7.40214 102.222 8.92334V13.1654H100.646V9.23253C100.646 8.29878 100.203 7.77317 99.3047 7.77317C98.3998 7.77317 97.8239 8.41627 97.8239 9.36239V13.1654H96.248Z" fill="#BC2826"/>
<path d="M89.7551 5.86856L91.2297 3.85266H92.5777L94.0522 5.86856H92.8625L91.8942 4.57616L90.9512 5.86856H89.7551ZM91.9385 13.2952C89.926 13.2952 88.7109 11.9905 88.7109 9.90655V9.90036C88.7109 7.83499 89.945 6.47457 91.8626 6.47457C93.7801 6.47457 94.9699 7.79171 94.9699 9.77051V10.2652H90.2741C90.2994 11.4154 90.9449 12.0956 91.9701 12.0956C92.7549 12.0956 93.2675 11.6875 93.4194 11.2484L93.432 11.2051H94.9066L94.8876 11.2732C94.6788 12.2811 93.6915 13.2952 91.9385 13.2952ZM91.8815 7.6804C91.0462 7.6804 90.4196 8.23075 90.2931 9.2387H93.4384C93.3245 8.19983 92.7169 7.6804 91.8815 7.6804ZM91.9448 15.7873C91.4575 15.7873 91.0715 15.4039 91.0715 14.9463C91.0715 14.4825 91.4575 14.1053 91.9448 14.1053C92.4448 14.1053 92.8245 14.4825 92.8245 14.9463C92.8245 15.4039 92.4448 15.7873 91.9448 15.7873Z" fill="#BC2826"/>
<path d="M86.6033 5.67069C86.1097 5.67069 85.7236 5.2873 85.7236 4.8297C85.7236 4.35974 86.1097 3.98253 86.6033 3.98253C87.0969 3.98253 87.4766 4.35974 87.4766 4.8297C87.4766 5.2873 87.0969 5.67069 86.6033 5.67069ZM85.8122 13.1654V6.61062H87.388V13.1654H85.8122Z" fill="#BC2826"/>
<path d="M80.6867 13.1654L78.3135 6.61061H79.9905L81.5474 11.7369H81.5853L83.1358 6.61061H84.7813L82.4207 13.1654H80.6867Z" fill="#BC2826"/>
<path d="M71.8652 13.2953C69.8717 13.2953 68.625 11.9843 68.625 9.88182V9.87564C68.625 7.78553 69.8907 6.47458 71.8462 6.47458C73.6119 6.47458 74.7131 7.5691 74.808 8.88006L74.8143 8.92953H73.3271L73.3145 8.87387C73.1816 8.23695 72.7006 7.7237 71.8652 7.7237C70.8716 7.7237 70.2325 8.54613 70.2325 9.88801V9.89419C70.2325 11.2608 70.878 12.0523 71.8715 12.0523C72.6689 12.0523 73.1752 11.5885 73.3208 10.9021L73.3334 10.8465H74.8207L74.8143 10.8898C74.6941 12.2564 73.5613 13.2953 71.8652 13.2953Z" fill="#BC2826"/>
<path d="M64.3852 13.2952C62.4107 13.2952 61.1387 12.009 61.1387 9.88801V9.87564C61.1387 7.77317 62.4297 6.47458 64.3789 6.47458C66.3344 6.47458 67.6318 7.7608 67.6318 9.87564V9.88801C67.6318 12.0152 66.3534 13.2952 64.3852 13.2952ZM64.3915 12.0523C65.3851 12.0523 66.0243 11.2608 66.0243 9.88801V9.87564C66.0243 8.50903 65.3788 7.7237 64.3789 7.7237C63.398 7.7237 62.7461 8.51521 62.7461 9.87564V9.88801C62.7461 11.267 63.3853 12.0523 64.3915 12.0523ZM64.3852 15.7873C63.8979 15.7873 63.5056 15.4039 63.5056 14.9463C63.5056 14.4825 63.8979 14.1053 64.3852 14.1053C64.8852 14.1053 65.2649 14.4825 65.2649 14.9463C65.2649 15.4039 64.8852 15.7873 64.3852 15.7873Z" fill="#BC2826"/>
<path d="M52 13.1654V4.24223H53.6328V7.95248H58.0754V4.24223H59.7018V13.1654H58.0754V9.29435H53.6328V13.1654H52Z" fill="#BC2826"/>
<path d="M287.527 41.7152V26.9987H290.22L296.869 36.5649H296.93V26.9987H300V41.7152H297.328L290.658 32.0776H290.597V41.7152H287.527Z" fill="#051A53"/>
<path d="M281.358 23.7964L282.786 21.8281H284.897L282.806 23.7964H281.358ZM279.022 24.2655H280.991L283.194 26.3256H281.154L280.001 25.2446L278.88 26.3256H276.84L279.022 24.2655ZM275.137 41.7152V26.9987H284.886V29.5382H278.217V33.0668H284.509V35.4737H278.217V39.1758H284.886V41.7152H275.137Z" fill="#051A53"/>
<path d="M265.01 41.7152V36.2182L259.891 26.9987H263.215L266.52 33.281H266.591L269.885 26.9987H273.22L268.09 36.2182V41.7152H265.01Z" fill="#051A53"/>
<path d="M251.793 41.9701C248.02 41.9701 245.623 39.7876 245.623 36.5139V26.9987H248.703V36.2386C248.703 38.1457 249.815 39.3593 251.793 39.3593C253.772 39.3593 254.873 38.1457 254.873 36.2386V26.9987H257.953V36.5139C257.953 39.7774 255.587 41.9701 251.793 41.9701Z" fill="#051A53"/>
<path d="M236.159 41.7152V29.5381H231.906V26.9987H243.502V29.5381H239.239V41.7152H236.159Z" fill="#051A53"/>
<path d="M219.322 41.9701C215.018 41.9701 212.315 39.0942 212.315 34.3519V34.3417C212.315 29.5994 215.028 26.7438 219.322 26.7438C222.891 26.7438 225.451 28.9976 225.737 32.1184L225.747 32.2102H222.748L222.708 32.0368C222.361 30.4152 221.158 29.3546 219.322 29.3546C216.966 29.3546 215.457 31.2515 215.457 34.3315V34.3417C215.457 37.442 216.966 39.3593 219.322 39.3593C221.096 39.3593 222.341 38.3395 222.738 36.5955L222.759 36.4935H225.757L225.747 36.6057C225.461 39.7367 222.881 41.9701 219.322 41.9701Z" fill="#051A53"/>
<path d="M204.045 41.9701C200.272 41.9701 197.875 39.7877 197.875 36.5139V26.9987H200.955V36.2386C200.955 38.1457 202.067 39.3593 204.045 39.3593C206.024 39.3593 207.125 38.1457 207.125 36.2386V26.9987C209.369 26.7234 209.868 26.0809 209.848 23.929H212.143C212.143 26.1115 211.643 27.2435 210.205 27.886V36.5139C210.205 39.7775 207.839 41.9701 204.045 41.9701ZM204.045 46.2127C203.148 46.2127 202.454 45.509 202.454 44.6625C202.454 43.8161 203.148 43.1124 204.045 43.1124C204.943 43.1124 205.636 43.8161 205.636 44.6625C205.636 45.509 204.943 46.2127 204.045 46.2127Z" fill="#051A53"/>
<path d="M184.076 41.7152V26.9987H190.154C193.459 26.9987 195.417 28.7529 195.417 31.7104V31.7308C195.417 33.6685 194.387 35.2799 192.755 35.9224L195.855 41.7152H192.368L189.624 36.3813H187.156V41.7152H184.076ZM187.156 34.0459H189.818C191.348 34.0459 192.266 33.179 192.266 31.7308V31.7104C192.266 30.303 191.297 29.4056 189.777 29.4056H187.156V34.0459Z" fill="#051A53"/>
<path d="M174.613 41.7152V29.5381H170.36V26.9987H181.956V29.5381H177.693V41.7152H174.613Z" fill="#051A53"/>
<path d="M157.776 41.9701C153.472 41.9701 150.77 39.0942 150.77 34.3519V34.3417C150.77 29.5994 153.482 26.7438 157.776 26.7438C161.345 26.7438 163.905 28.9976 164.191 32.1184L164.201 32.2102H161.203L161.162 32.0368C160.815 30.4152 159.612 29.3546 157.776 29.3546C155.42 29.3546 153.911 31.2515 153.911 34.3315V34.3417C153.911 37.442 155.42 39.3593 157.776 39.3593C159.55 39.3593 160.795 38.3395 161.192 36.5955L161.213 36.4935H164.211L164.201 36.6057C163.915 39.7367 161.335 41.9701 157.776 41.9701Z" fill="#051A53"/>
<path d="M141.723 41.9701C137.348 41.9701 134.625 39.0432 134.625 34.3621V34.3417C134.625 29.6605 137.368 26.7438 141.723 26.7438C146.088 26.7438 148.821 29.6707 148.821 34.3417V34.3621C148.821 39.0432 146.098 41.9701 141.723 41.9701ZM141.723 39.3593C144.171 39.3593 145.68 37.4114 145.68 34.3621V34.3417C145.68 31.2719 144.14 29.3546 141.723 29.3546C139.316 29.3546 137.766 31.2617 137.766 34.3417V34.3621C137.766 37.442 139.306 39.3593 141.723 39.3593ZM141.723 46.2127C140.826 46.2127 140.132 45.509 140.132 44.6626C140.132 43.8161 140.826 43.1124 141.723 43.1124C142.621 43.1124 143.314 43.8161 143.314 44.6626C143.314 45.509 142.621 46.2127 141.723 46.2127Z" fill="#051A53"/>
<path d="M119.431 41.7152V26.9987H122.511V32.975H129.14V26.9987H132.22V41.7152H129.14V35.5145H122.511V41.7152H119.431Z" fill="#051A53"/>
<path d="M105.888 41.9701C101.492 41.9701 98.7998 39.1044 98.7998 34.3111V34.3009C98.7998 29.5892 101.502 26.7438 105.816 26.7438C109.355 26.7438 111.762 28.8039 112.252 31.5677L112.282 31.7104H109.192L109.151 31.6085C108.662 30.1807 107.489 29.3546 105.827 29.3546C103.399 29.3546 101.941 31.1495 101.941 34.2703V34.2805C101.941 37.4726 103.491 39.3593 105.939 39.3593C107.948 39.3593 109.325 38.1661 109.406 36.3508L109.416 36.1366H106.051V33.8419H112.415V35.5349C112.415 39.5429 109.988 41.9701 105.888 41.9701Z" fill="#051A53"/>
<path d="M83.9102 41.7152V26.9987H86.6026L93.252 36.5649H93.3132V26.9987H96.3829V41.7152H93.7109L87.0411 32.0776H86.9799V41.7152H83.9102Z" fill="#051A53"/>
<path d="M75.854 24.2451V24.2043C76.0783 24.0004 76.2007 23.7964 76.2007 23.5822C76.2007 23.2457 75.9661 23.0315 75.395 23.0315C75.2217 23.0315 75.0483 23.0519 74.9157 23.0825V21.9301C75.1401 21.8587 75.5174 21.7873 75.9355 21.7873C77.0574 21.7873 77.7713 22.2564 77.7713 23.0111C77.7713 23.5108 77.4653 23.8984 76.9554 24.2451H75.854ZM73.4063 24.2655H75.3746L77.5775 26.3256H75.5378L74.3854 25.2446L73.2635 26.3256H71.2238L73.4063 24.2655ZM74.4058 41.9701C70.0306 41.9701 67.3076 39.0432 67.3076 34.3621V34.3417C67.3076 29.6605 70.051 26.7438 74.4058 26.7438C78.7707 26.7438 81.5039 29.6707 81.5039 34.3417V34.3621C81.5039 39.0432 78.7809 41.9701 74.4058 41.9701ZM74.4058 39.3593C76.8534 39.3593 78.3628 37.4114 78.3628 34.3621V34.3417C78.3628 31.2719 76.8228 29.3546 74.4058 29.3546C71.9989 29.3546 70.4488 31.2617 70.4488 34.3417V34.3621C70.4488 37.442 71.9887 39.3593 74.4058 39.3593Z" fill="#051A53"/>
<path d="M59.0064 41.9701C54.7026 41.9701 52 39.0942 52 34.3519V34.3417C52 29.5994 54.7128 26.7438 59.0064 26.7438C62.5758 26.7438 65.1357 28.9976 65.4212 32.1184L65.4314 32.2102H62.4331L62.3923 32.0368C62.0455 30.4152 60.8421 29.3546 59.0064 29.3546C56.6505 29.3546 55.1411 31.2515 55.1411 34.3315V34.3417C55.1411 37.442 56.6505 39.3593 59.0064 39.3593C60.7809 39.3593 62.0251 38.3395 62.4229 36.5955L62.4433 36.4935H65.4416L65.4314 36.6057C65.1459 39.7367 62.5656 41.9701 59.0064 41.9701Z" fill="#051A53"/>
<defs>
<clipPath id="clip0_286_1334">
<rect width="40" height="48" fill="white"/>
</clipPath>
</defs>
</svg>
