<?xml version="1.0" encoding="utf-8"?>
<!-- Generator: Adobe Illustrator 16.0.0, SVG Export Plug-In . SVG Version: 6.00 Build 0)  -->
<!DOCTYPE svg PUBLIC "-//W3C//DTD SVG 1.1//EN" "http://www.w3.org/Graphics/SVG/1.1/DTD/svg11.dtd">
<svg version="1.1" id="Layer_1" xmlns="http://www.w3.org/2000/svg" xmlns:xlink="http://www.w3.org/1999/xlink" x="0px" y="0px"
	 width="95.666px" height="80px" viewBox="0 0 95.666 80" enable-background="new 0 0 95.666 80" xml:space="preserve">
<g>
	<path fill="#E31C2A" d="M92.284,78.124l0.248-0.417l-0.358,0.328c-3.348-3.684-7.125-5.551-11.226-5.551
		c-2.244,0-4.646,0.557-7.14,1.65c-6.181,2.143-11.37,3.178-15.9,3.178c-5.412,0-9.173-1.418-13.155-2.92
		c-4.044-1.524-8.227-3.102-14.402-3.102c-3.393,0-7.073,0.465-11.248,1.423l-0.496,0.113L6.921,17.619
		c-0.078-0.353-1.193-5.102-1.435-6.129l-2.71-1.761l2.583-7.827l5.376,5.475l-1.399,3.634l1.508,4.625
		c4.995-1.601,11.444-2.514,17.795-2.514c5.282,0,12.871,0.632,19.03,3.643l0.587,0.292c1.538,0.771,4.737,2.375,6.943,2.854
		c0.044,0.01,0.086,0.013,0.129,0.017c0.256,0.029,0.846,0.085,0.846,0.085c0.194,0.015,0.736,0.047,0.736,0.047
		c0.278,0.014,0.538,0.02,0.804,0.024l1.001-0.004c0.205-0.004,0.827-0.025,0.827-0.025c0.23-0.01,0.812-0.045,0.812-0.045
		c0.569-0.04,1.148-0.093,1.735-0.154l0.88-0.1c0.372-0.045,0.658-0.084,0.946-0.124c1.729-0.237,3.508-0.541,5.228-0.836
		c3.742-0.641,7.276-1.246,10.517-1.246c6.021,0,9.62,2.239,11.324,7.048l0.188,0.53l-0.549,0.125
		c-2.673,0.605-4.412,1.737-5.314,3.461c-2.179,4.166,0.788,11.505,3.929,19.276c4.108,10.162,8.764,21.682,3.736,29.969
		l-0.261,0.43L92.284,78.124z"/>
	<path fill="#FFED00" d="M5.577,2.837l4.576,4.66l-1.348,3.5c0,0,1.098,3.367,1.718,5.271c4.816-1.617,11.418-2.646,18.115-2.646
		c6.753,0,13.604,1.047,18.811,3.592c1.145,0.557,5.034,2.619,7.645,3.186c0.086,0.019,0.174,0.023,0.262,0.033
		c0.175,0.021,0.348,0.04,0.524,0.055c0.082,0.007,0.165,0.015,0.247,0.023c0.207,0.016,0.413,0.028,0.619,0.04
		c0.052,0.004,0.101,0.008,0.156,0.009c0.268,0.013,0.534,0.02,0.806,0.024c0.027,0,0.054,0,0.079,0
		c0.103,0.001,0.206,0.002,0.309,0.002c0.141,0,0.283-0.001,0.423-0.002c0.067-0.002,0.133-0.004,0.197-0.004
		c0.217-0.004,0.429-0.01,0.646-0.018c0.065-0.002,0.128-0.005,0.195-0.007c0.241-0.011,0.482-0.025,0.726-0.04
		c0.032-0.001,0.065-0.004,0.1-0.006c0.581-0.04,1.166-0.094,1.758-0.155c0.019-0.003,0.035-0.004,0.052-0.006
		c0.277-0.03,0.553-0.062,0.835-0.095c0.029-0.004,0.055-0.008,0.084-0.012c0.291-0.034,0.58-0.074,0.872-0.114
		C69.35,19.394,74.93,18.05,79.66,18.05c4.968,0,8.999,1.483,10.853,6.715c-19.499,4.412,12.375,35.891,2.034,52.934l-0.006-0.004
		l0.004,0.005c-3.392-3.731-7.236-5.714-11.596-5.714c-2.3,0-4.745,0.553-7.341,1.691c-6.635,2.299-11.62,3.137-15.699,3.137
		c-10.939,0-15.357-6.021-27.557-6.021c-3.175,0-6.878,0.407-11.36,1.436L7.41,17.516c-0.088-0.4-1.483-6.336-1.483-6.336
		L3.372,9.52L5.577,2.837 M5.142,0.967L4.627,2.524L2.422,9.206L2.18,9.938l0.646,0.42l2.219,1.441
		c0.5,2.125,1.324,5.639,1.388,5.931l11.58,54.706l0.211,0.994l0.991-0.228c4.138-0.949,7.781-1.41,11.136-1.41
		c6.084,0,10.223,1.562,14.226,3.069c3.849,1.451,7.829,2.951,13.332,2.951c4.587,0,9.829-1.043,16.026-3.189l0.038-0.014
		l0.037-0.017c2.431-1.067,4.765-1.608,6.938-1.608c4.01,0,7.562,1.763,10.856,5.388l0.72-0.652l-0.508,0.826l0.857,0.527
		l0.528-0.856c5.158-8.5,0.452-20.143-3.7-30.415c-3.097-7.661-6.021-14.896-3.949-18.857c0.83-1.586,2.459-2.635,4.981-3.205
		l1.098-0.249l-0.376-1.061c-2.345-6.616-7.854-7.381-11.795-7.381c-3.284,0-6.838,0.609-10.601,1.253
		c-1.716,0.294-3.49,0.598-5.211,0.833c-0.286,0.039-0.569,0.078-0.853,0.111l-0.118,0.017c-0.246,0.028-0.519,0.06-0.793,0.089
		c-0.022,0.002-0.043,0.004-0.063,0.007c-0.575,0.06-1.143,0.111-1.707,0.15l-0.063,0.004c-0.268,0.016-0.502,0.03-0.738,0.041
		l-0.097,0.003l-0.083,0.003c-0.217,0.008-0.424,0.014-0.635,0.018c-0.002,0-0.004,0-0.006,0c-0.054,0-0.124,0.002-0.197,0.004
		l-0.4,0.002l-0.293-0.002h-0.095c-0.246-0.003-0.5-0.01-0.756-0.023l-0.104-0.005c-0.242-0.015-0.442-0.026-0.642-0.042
		L55.97,19.49c-0.168-0.014-0.331-0.032-0.494-0.051l-0.1-0.01c-0.024-0.002-0.048-0.003-0.072-0.007
		c-2.141-0.465-5.302-2.05-6.822-2.812c-0.24-0.12-0.44-0.221-0.593-0.295c-6.243-3.051-13.913-3.692-19.248-3.692
		c-6.202,0-12.5,0.866-17.474,2.389l-1.299-3.987l1.22-3.168l0.231-0.601l-0.451-0.459l-4.576-4.66L5.142,0.967L5.142,0.967z"/>
</g>
<path fill="#FFED00" d="M51.498,51.253c-3.215-3.213-6.37-6.364-9.554-9.546c-1.037,0.911-2.034,1.79-3.11,2.736
	c-1.372-1.353-2.735-2.694-4.041-3.979c2.193-2.118,4.281-4.125,6.354-6.146c0.605-0.591,1.273-0.901,2.163-0.866
	c1.083,0.042,2.117-0.238,3.069-0.762c0.331-0.182,0.576-0.195,0.843,0.142c0.254,0.325,0.616,0.566,0.91,0.867
	c0.287,0.294,0.548,0.615,0.837,0.944c-1.208,1.171-2.359,2.284-3.563,3.455c3.146,3.314,6.356,6.478,9.781,9.536
	c0.687-0.905,1.086-1.854,1.205-2.868c0.643-5.442-1.052-10.03-5.403-13.558c-0.958-0.779-2.072-1.371-3.115-2.049
	c-0.147-0.096-0.3-0.183-0.451-0.274c0.009-0.054,0.021-0.104,0.033-0.158c0.838,0.107,1.689,0.16,2.518,0.328
	c5.861,1.19,10.712,6.412,11.427,12.23c0.344,2.82-0.115,5.488-1.438,8.02c-0.297,0.561-0.549,1.141-0.848,1.698
	c-0.164,0.308-0.099,0.515,0.155,0.744c0.74,0.676,1.458,1.378,2.14,2.026c-1.234,1.211-2.412,2.365-3.627,3.556
	c-0.672-0.638-1.422-1.324-2.141-2.052c-0.278-0.277-0.492-0.313-0.85-0.133c-1.693,0.836-3.408,1.646-5.287,2.012
	c-4.09,0.795-7.864-0.014-11.328-2.246c-0.952-0.611-1.864-1.281-2.839-1.957c-1.692,1.382-3.386,2.767-5.149,4.205
	c-0.836-0.988-1.652-1.954-2.531-2.991c2.427-1.99,4.783-3.92,7.133-5.853c0.328-0.271,0.564-0.17,0.85,0.091
	c3.286,3.02,7.202,4.411,11.69,4.188C48.782,52.523,50.178,52.104,51.498,51.253z"/>
</svg>
