<svg width="41" height="41" viewBox="0 0 41 41" fill="none" xmlns="http://www.w3.org/2000/svg">
<rect x="0.661377" y="0.5" width="40" height="40" rx="20" fill="white"/>
<path fill-rule="evenodd" clip-rule="evenodd" d="M24.828 13.4167C24.828 13.1867 24.6405 13 24.4114 13H22.328C20.0264 13 18.1614 14.6792 18.1614 16.75V19H16.078C15.848 19 15.6614 19.1867 15.6614 19.4167V21.5833C15.6614 21.8133 15.848 22 16.078 22H18.1614V27.5833C18.1614 27.8133 18.348 28 18.578 28H21.078C21.3072 28 21.4947 27.8133 21.4947 27.5833V22H23.6772C23.8647 22 24.0289 21.875 24.0797 21.695L24.6805 19.5283C24.7547 19.2633 24.5547 19 24.2797 19H21.4947V16.75C21.4947 16.3358 21.8672 16 22.328 16H24.4114C24.6405 16 24.828 15.8133 24.828 15.5833V13.4167Z" fill="#DE221A"/>
</svg>
