<svg width="40" height="40" viewBox="0 0 40 40" fill="none" xmlns="http://www.w3.org/2000/svg">
<rect width="40" height="40" rx="20" fill="#EDF2FF"/>
<path fill-rule="evenodd" clip-rule="evenodd" d="M25 11.5C25 11.224 24.775 11 24.5 11H22C19.238 11 17 13.015 17 15.5V18.2H14.5C14.224 18.2 14 18.424 14 18.7V21.3C14 21.576 14.224 21.8 14.5 21.8H17V28.5C17 28.776 17.224 29 17.5 29H20.5C20.775 29 21 28.776 21 28.5V21.8H23.619C23.844 21.8 24.041 21.65 24.102 21.434L24.823 18.834C24.912 18.516 24.672 18.2 24.342 18.2H21V15.5C21 15.003 21.447 14.6 22 14.6H24.5C24.775 14.6 25 14.376 25 14.1V11.5Z" fill="#BC2826"/>
</svg>
