<svg width="18" height="17" viewBox="0 0 18 17" fill="none" xmlns="http://www.w3.org/2000/svg">
<path d="M11.1265 2.8804C10.7094 1.79817 10.1851 0.886711 9.58264 0.18785C9.38392 0.173753 9.18476 0.166674 8.98553 0.166626C8.78524 0.166626 8.58612 0.173885 8.3884 0.18785C7.7858 0.886743 7.26154 1.79804 6.84458 2.8804C6.70992 3.22984 6.58889 3.59208 6.48143 3.96493H11.4896C11.3821 3.59208 11.261 3.22984 11.1265 2.8804ZM6.23641 12.0584H11.7345C11.9447 11.0816 12.0668 10.0478 12.0955 8.98824H5.87541C5.90415 10.048 6.02623 11.0816 6.23641 12.0584ZM11.7345 4.9415H6.23641C6.02623 5.91829 5.90415 6.95208 5.87541 8.01168H12.0955C12.0668 6.95195 11.9447 5.91829 11.7345 4.9415ZM6.84445 14.1195C7.26154 15.2018 7.7858 16.1132 8.38827 16.8121C8.58612 16.8261 8.78524 16.8333 8.98553 16.8333C9.18567 16.8333 9.38479 16.826 9.58264 16.8121C10.1851 16.1132 10.7094 15.2019 11.1263 14.1195C11.261 13.7701 11.3821 13.4078 11.4895 13.035H6.48143C6.58886 13.4078 6.70995 13.7701 6.84445 14.1195ZM12.7303 4.9415C12.9272 5.91653 13.0447 6.94879 13.0724 8.01168H17.3042C17.2424 6.93453 16.9769 5.89579 16.5252 4.94071C16.5206 4.94085 16.516 4.9415 16.5113 4.9415H12.7303ZM5.24078 12.0584C5.04367 11.0834 4.92619 10.0511 4.89859 8.98824H0.666687C0.728471 10.0654 0.993998 11.1041 1.44566 12.0592C1.45035 12.0591 1.45494 12.0584 1.45966 12.0584H5.24078ZM12.5012 13.035C12.1376 14.3906 11.6132 15.6059 10.9594 16.599C12.4307 16.2432 13.7805 15.49 14.878 14.3925C15.2912 13.9795 15.6603 13.5245 15.9793 13.035H12.5012ZM5.46975 3.96493C5.83345 2.6093 6.3577 1.39407 7.01154 0.400968C5.54039 0.756795 4.19045 1.50992 3.09283 2.60738C2.67963 3.02044 2.31059 3.47541 1.99165 3.96493H5.46975ZM5.46975 13.035H1.99169C2.31062 13.5245 2.67967 13.9795 3.09286 14.3925C4.19048 15.49 5.54026 16.2432 7.01148 16.5989C6.35774 15.6059 5.83348 14.3906 5.46981 13.035H5.46975ZM12.5012 3.96493H15.9793C15.6604 3.47538 15.2913 3.02041 14.8781 2.60738C13.7805 1.50992 12.4307 0.756795 10.9594 0.401001C11.6132 1.39407 12.1376 2.60933 12.5012 3.96493ZM13.0724 8.98824C13.0447 10.0511 12.9274 11.0834 12.7303 12.0584H16.5113C16.516 12.0584 16.5206 12.0591 16.5253 12.0592C16.9769 11.1041 17.2424 10.0654 17.3043 8.98824H13.0724ZM4.89859 8.01168C4.92619 6.94879 5.04367 5.91653 5.24078 4.9415H1.45962C1.45494 4.9415 1.45035 4.94085 1.44563 4.94071C0.994031 5.89579 0.728536 6.93453 0.666687 8.01168H4.89859Z" fill="#FFFFFF"/>
</svg>
