<svg width="18" height="13" viewBox="0 0 18 13" fill="none" xmlns="http://www.w3.org/2000/svg">
<path d="M10.3929 8.37808C9.97824 8.65452 9.4966 8.80064 9.00002 8.80064C8.50347 8.80064 8.02183 8.65452 7.60718 8.37808L0.777657 3.82493C0.739955 3.79972 0.702951 3.77348 0.666687 3.74625L0.666687 11.2071C0.666687 12.0625 1.36086 12.7414 2.20096 12.7414H15.799C16.6544 12.7414 17.3333 12.0472 17.3333 11.2071V3.74622C17.297 3.77352 17.2599 3.79981 17.2221 3.82506L10.3929 8.37808Z" fill="#FFFFFF"/>
<path d="M1.31936 3.01231L8.14888 7.5655C8.40741 7.73787 8.7037 7.82403 8.99999 7.82403C9.29631 7.82403 9.59263 7.73783 9.85116 7.5655L16.6807 3.01231C17.0894 2.74001 17.3334 2.28429 17.3334 1.79242C17.3334 0.946688 16.6453 0.258667 15.7996 0.258667H2.20044C1.35474 0.2587 0.666688 0.94672 0.666688 1.79324C0.666434 2.03452 0.7259 2.27211 0.839782 2.48482C0.953663 2.69753 1.11842 2.87875 1.31936 3.01231Z" fill="#FFFFFF"/>
</svg>
