<svg width="14" height="17" viewBox="0 0 14 17" fill="none" xmlns="http://www.w3.org/2000/svg">
<path d="M7.00002 0.166626C3.67174 0.166626 0.963989 2.87437 0.963989 6.20263C0.963989 10.3331 6.36565 16.3969 6.59563 16.653C6.81165 16.8936 7.18879 16.8932 7.40442 16.653C7.6344 16.3969 13.0361 10.3331 13.0361 6.20263C13.036 2.87437 10.3283 0.166626 7.00002 0.166626ZM7.00002 9.23951C5.32548 9.23951 3.96318 7.87717 3.96318 6.20263C3.96318 4.52808 5.32551 3.16578 7.00002 3.16578C8.67454 3.16578 10.0368 4.52812 10.0368 6.20266C10.0368 7.87721 8.67454 9.23951 7.00002 9.23951Z" fill="#FFFFFF"/>
</svg>
