<svg width="18" height="17" viewBox="0 0 18 17" fill="none" xmlns="http://www.w3.org/2000/svg">
<path d="M16.9039 12.4643L14.8325 10.3924C14.2798 9.83976 13.3142 9.83882 12.7607 10.3924L12.4153 10.7378L16.5586 14.881L16.9039 14.5357C17.4774 13.9621 17.4755 13.0349 16.9039 12.4643ZM11.7056 11.4091C11.2697 11.7468 10.6479 11.7333 10.2496 11.3342L6.15404 7.23573C5.75485 6.83655 5.74141 6.21428 6.07907 5.77949L1.94526 1.6459C0.166909 3.71881 0.23644 6.84228 2.19916 8.805L8.68037 15.289C10.5638 17.1724 13.6489 17.4222 15.8396 15.5428L11.7056 11.4091ZM7.0958 2.65332L5.02442 0.581481C4.47175 0.028813 3.50616 0.027869 2.95258 0.581481L2.60717 0.926891L6.75052 5.07001L7.0958 4.7247C7.6693 4.1512 7.66742 3.22399 7.0958 2.65332Z" fill="#FFFFFF"/>
</svg>
