<svg width="49" height="48" viewBox="0 0 49 48" fill="none" xmlns="http://www.w3.org/2000/svg">
<rect x="0.5" width="48" height="48" rx="24" fill="#FFF5F5"/>
<g clip-path="url(#clip0_1_350)">
<path d="M19.0311 20.0938C17.3077 20.0938 15.8541 21.4953 15.8541 23.2188H22.2081C22.2081 21.4953 20.7545 20.0938 19.0311 20.0938ZM28.458 11.1877V15.4064H32.6767L28.458 11.1877ZM19.0311 15.4064C18.1697 15.4064 17.4166 16.1076 17.4166 16.9689C17.4166 17.8302 18.1698 18.5313 19.0311 18.5313C19.8924 18.5313 20.6456 17.8302 20.6456 16.9689C20.6456 16.1076 19.8924 15.4064 19.0311 15.4064Z" fill="#FA5252"/>
<path d="M26.1143 21.6562H30.6382C31.3879 20.9052 32.2079 20.0844 33.1454 19.1465V16.9688H27.6768C27.2453 16.9688 26.8955 16.6191 26.8955 16.1876V10.6669H13.5104C12.2135 10.6669 11.1667 11.7657 11.1667 13.0627V34.9372C11.1667 36.234 12.2135 37.333 13.5104 37.333H30.8017C32.0986 37.333 33.1454 36.234 33.1454 34.9372V27.9838L28.7654 32.3631L24.6426 35.2996C23.7126 35.9603 22.4322 35.8652 21.6138 35.0356C21.3615 34.78 21.2041 34.4749 21.0923 34.1559H19.8123C19.3805 34.1559 19.031 33.8065 19.031 33.3747C19.031 32.9429 19.3805 32.5934 19.8123 32.5934H21.1041C21.1788 32.3904 21.2586 32.1873 21.3925 32.0044L24.2352 28.1318C24.2747 28.0737 24.373 27.9396 29.0794 23.2186H26.1143C25.6824 23.2186 25.333 22.8692 25.333 22.4373C25.333 22.0055 25.6825 21.6562 26.1143 21.6562ZM21.4269 31.031H15.0729C14.641 31.031 14.2916 30.6816 14.2916 30.2498C14.2916 29.818 14.641 29.4685 15.0729 29.4685H21.4269C21.8587 29.4685 22.2082 29.818 22.2082 30.2498C22.2081 30.6816 21.8587 31.031 21.4269 31.031ZM21.4269 27.9061H15.0729C14.641 27.9061 14.2916 27.5567 14.2916 27.1248C14.2916 26.693 14.641 26.3436 15.0729 26.3436H21.4269C21.8587 26.3436 22.2082 26.693 22.2082 27.1248C22.2082 27.5567 21.8587 27.9061 21.4269 27.9061ZM23.7706 23.9999C23.7706 24.4318 23.4211 24.7812 22.9893 24.7812H15.0729C14.641 24.7812 14.2916 24.4318 14.2916 23.9999V23.2187C14.2916 21.4523 15.285 19.9297 16.7317 19.1308C16.1909 18.5688 15.8541 17.8088 15.8541 16.9688C15.8541 15.2454 17.3076 13.8438 19.0311 13.8438C20.7545 13.8438 22.2081 15.2454 22.2081 16.9688C22.2081 17.8088 21.8714 18.5688 21.3306 19.1308C22.7772 19.9297 23.7706 21.4523 23.7706 23.2187V23.9999ZM26.1143 18.5313H29.2392C29.671 18.5313 30.0205 18.8807 30.0205 19.3125C30.0205 19.7444 29.671 20.0938 29.2392 20.0938H26.1143C25.6824 20.0938 25.333 19.7444 25.333 19.3125C25.333 18.8807 25.6825 18.5313 26.1143 18.5313Z" fill="#FA5252"/>
<path d="M37.3751 19.3354C36.7656 18.7261 35.7751 18.7261 35.1656 19.3355C35.1293 19.3719 34.0989 20.4035 32.729 21.7761L34.9366 23.9838L37.3751 21.5456C37.9848 20.9358 37.9873 19.9477 37.3751 19.3354ZM31.6255 22.8821C29.6634 24.8489 27.4142 27.1064 26.2631 28.2705C27.3424 28.5387 28.1882 29.3891 28.4473 30.4719L33.8317 25.0883L31.6255 22.8821ZM25.5459 29.7364H24.9958L22.653 32.9281C22.5431 33.0778 22.4901 33.2618 22.5036 33.447C22.517 33.6322 22.596 33.8066 22.7264 33.9389C22.8568 34.0711 23.03 34.1526 23.215 34.1687C23.4 34.1849 23.5847 34.1345 23.736 34.0268L26.9741 31.7208V31.1654C26.9741 30.3772 26.3332 29.7364 25.5459 29.7364Z" fill="#FA5252"/>
</g>
<defs>
<clipPath id="clip0_1_350">
<rect width="26.6667" height="26.6667" fill="white" transform="translate(11.1667 10.6667)"/>
</clipPath>
</defs>
</svg>
