<svg width="49" height="48" viewBox="0 0 49 48" fill="none" xmlns="http://www.w3.org/2000/svg">
<rect x="0.5" width="48" height="48" rx="24" fill="#FFF5F5"/>
<path d="M25.5741 10.6667H22.4023C21.1137 10.6667 20.0673 11.7238 20.0848 13.0163L27.8916 13.0208C27.9116 11.7263 26.8642 10.6667 25.5741 10.6667ZM18.522 18.5313H20.0585V20.0677H18.522V18.5313ZM18.522 31.0703H20.0585V32.6068H18.522V31.0703ZM18.522 24.7943H20.0585V26.3307H18.522V24.7943Z" fill="#FA5252"/>
<path d="M32.3173 12.2233L29.1361 12.2284C29.3464 12.7136 29.4548 13.2368 29.4544 13.7656C29.4544 14.1971 29.1046 14.5469 28.6731 14.5469H19.3033C18.8719 14.5469 18.5221 14.1971 18.5221 13.7656C18.5217 13.2368 18.63 12.7136 18.8403 12.2284C14.8675 12.2221 15.8013 12.2233 15.6561 12.2233C14.6584 12.2233 13.8333 13.0295 13.8333 14.0463V35.5104C13.8333 36.5156 14.6511 37.3333 15.6562 37.3333H32.3203C33.3254 37.3333 34.1432 36.5156 34.1432 35.5104V14.0463C34.1432 13.0463 33.3362 12.2233 32.3173 12.2233ZM21.621 33.388C21.621 33.8195 21.2712 34.1693 20.8398 34.1693H17.7408C17.3094 34.1693 16.9596 33.8195 16.9596 33.388V30.2891C16.9596 29.8576 17.3094 29.5078 17.7408 29.5078H20.8398C21.2712 29.5078 21.621 29.8576 21.621 30.2891V33.388ZM21.621 27.112C21.621 27.5434 21.2712 27.8932 20.8398 27.8932H17.7408C17.3094 27.8932 16.9596 27.5434 16.9596 27.112V24.013C16.9596 23.5816 17.3094 23.2318 17.7408 23.2318H20.8398C21.2712 23.2318 21.621 23.5816 21.621 24.013V27.112ZM21.621 20.849C21.621 21.2804 21.2712 21.6302 20.8398 21.6302H17.7408C17.3094 21.6302 16.9596 21.2804 16.9596 20.849V17.75C16.9596 17.3185 17.3094 16.9688 17.7408 16.9688H20.8398C21.2712 16.9688 21.621 17.3185 21.621 17.75V20.849ZM28.6757 34.1693H23.9882C23.5568 34.1693 23.207 33.8195 23.207 33.388C23.207 32.9566 23.5568 32.6068 23.9882 32.6068H28.6757C29.1072 32.6068 29.457 32.9566 29.457 33.388C29.457 33.8195 29.1072 34.1693 28.6757 34.1693ZM30.2356 31.0703H23.9882C23.5568 31.0703 23.207 30.7205 23.207 30.2891C23.207 29.8576 23.5568 29.5078 23.9882 29.5078H30.2356C30.6671 29.5078 31.0169 29.8576 31.0169 30.2891C31.0169 30.7205 30.6671 31.0703 30.2356 31.0703ZM23.207 27.112C23.207 26.6805 23.5568 26.3307 23.9882 26.3307H28.6757C29.1072 26.3307 29.457 26.6805 29.457 27.112C29.457 27.5434 29.1072 27.8932 28.6757 27.8932H23.9882C23.5568 27.8932 23.207 27.5434 23.207 27.112ZM30.2356 24.7943H23.9882C23.5568 24.7943 23.207 24.4445 23.207 24.013C23.207 23.5816 23.5568 23.2318 23.9882 23.2318H30.2356C30.6671 23.2318 31.0169 23.5816 31.0169 24.013C31.0169 24.4445 30.6671 24.7943 30.2356 24.7943ZM23.207 20.849C23.207 20.4175 23.5568 20.0677 23.9882 20.0677H28.6757C29.1072 20.0677 29.457 20.4175 29.457 20.849C29.457 21.2804 29.1072 21.6302 28.6757 21.6302H23.9882C23.5568 21.6302 23.207 21.2804 23.207 20.849ZM30.2356 18.5313H23.9882C23.5568 18.5313 23.207 18.1815 23.207 17.75C23.207 17.3185 23.5568 16.9688 23.9882 16.9688H30.2356C30.6671 16.9688 31.0169 17.3185 31.0169 17.75C31.0169 18.1815 30.6671 18.5313 30.2356 18.5313Z" fill="#FA5252"/>
</svg>
