<svg width="49" height="48" viewBox="0 0 49 48" fill="none" xmlns="http://www.w3.org/2000/svg">
<rect x="0.5" width="48" height="48" rx="24" fill="#FFF5F5"/>
<g clip-path="url(#clip0_84_232)">
<path d="M29.7083 29.1563H28.3966C28.262 31.1891 26.5664 32.8021 24.5 32.8021C22.4336 32.8021 20.738 31.1891 20.6034 29.1563H19.2917C15.7018 29.1563 12.7812 32.0768 12.7812 35.6667V36.5521C12.7812 36.9835 13.131 37.3333 13.5625 37.3333H35.4375C35.869 37.3333 36.2188 36.9835 36.2188 36.5521V35.6667C36.2188 32.0768 33.2982 29.1563 29.7083 29.1563ZM17.7292 22.3854V19.2604C16.8662 19.2604 16.1667 19.96 16.1667 20.8229C16.1667 21.6859 16.8662 22.3854 17.7292 22.3854ZM26.5518 15.8434C26.8332 15.5619 27.2814 15.5371 27.5922 15.7858L29.9824 17.6979H31.2708V17.4375C31.2708 13.6981 28.2394 10.6667 24.5 10.6667C20.7606 10.6667 17.7292 13.6981 17.7292 17.4375V17.6979H22.0747C22.9062 17.6979 23.7295 17.5341 24.4977 17.216C25.2659 16.8978 25.9638 16.4314 26.5518 15.8434Z" fill="#FA5252"/>
<path d="M22.1562 28.4774V28.8958C22.1562 30.1903 23.2056 31.2396 24.5 31.2396C25.7944 31.2396 26.8437 30.1903 26.8437 28.8958V28.4774C26.1131 28.7478 25.3235 28.8958 24.5 28.8958C23.6764 28.8958 22.8869 28.7479 22.1562 28.4774ZM24.2396 24.9896C24.2396 24.5581 24.5894 24.2083 25.0208 24.2083H29.2745C29.5533 23.5703 29.7083 22.8658 29.7083 22.125V19.4796L27.1381 17.4234C25.7203 18.6127 23.9471 19.2604 22.0745 19.2604H19.2917V22.125C19.2917 25.0015 21.6235 27.3333 24.5 27.3333C25.9568 27.3333 27.2737 26.735 28.219 25.7708H25.0208C24.5894 25.7708 24.2396 25.4211 24.2396 24.9896Z" fill="#FA5252"/>
<path d="M31.2708 22.3854H32.0521V22.9063C32.0521 23.6242 31.468 24.2083 30.75 24.2083H29.2745C29.0205 24.789 28.6628 25.3184 28.219 25.7708H30.75C32.3295 25.7708 33.6146 24.4858 33.6146 22.9063V20.8229C33.6146 19.96 32.9151 19.2604 32.0521 19.2604H31.2708V22.3854Z" fill="#FA5252"/>
</g>
<defs>
<clipPath id="clip0_84_232">
<rect width="26.6667" height="26.6667" fill="white" transform="translate(11.1667 10.6667)"/>
</clipPath>
</defs>
</svg>
