<svg width="14" height="17" viewBox="0 0 14 17" fill="none" xmlns="http://www.w3.org/2000/svg">
<path d="M13.2761 0.166659H3.82729V12.2652H13.7644V0.65494C13.7644 0.385278 13.5457 0.166659 13.2761 0.166659ZM10.6263 8.01168H6.96531C6.69565 8.01168 6.47703 7.79306 6.47703 7.5234C6.47703 7.25374 6.69565 7.03512 6.96531 7.03512H10.6263C10.896 7.03512 11.1146 7.25374 11.1146 7.5234C11.1146 7.79306 10.896 8.01168 10.6263 8.01168ZM11.1494 5.3967H6.44233C6.17267 5.3967 5.95405 5.17808 5.95405 4.90842C5.95405 4.63876 6.17267 4.42014 6.44233 4.42014H11.1494C11.419 4.42014 11.6376 4.63876 11.6376 4.90842C11.6376 5.17808 11.419 5.3967 11.1494 5.3967ZM2.85072 12.2652V0.166659H2.85134L2.85072 0.166626H2.03149C1.03813 0.166626 0.235718 0.970532 0.235718 1.96243V12.9279C0.719767 12.5151 1.34659 12.2652 2.03097 12.2652H2.85072ZM0.235718 15.038C0.235718 16.028 1.04106 16.8333 2.03097 16.8333H13.2761C13.5457 16.8333 13.7644 16.6147 13.7644 16.345V13.2417H2.031C1.04106 13.2417 0.235718 14.0471 0.235718 15.038Z" fill="#868E96"/>
</svg>
