<svg width="49" height="48" viewBox="0 0 49 48" fill="none" xmlns="http://www.w3.org/2000/svg">
<rect x="0.5" width="48" height="48" rx="24" fill="#FFF5F5"/>
<g clip-path="url(#clip0_84_224)">
<path d="M14.3438 32.5938V36.5521C14.3438 36.9839 14.6932 37.3333 15.125 37.3333H33.875C34.3068 37.3333 34.6562 36.9839 34.6562 36.5521V32.5938H14.3438ZM29.9688 11.1244V15.3542H34.1985L29.9688 11.1244Z" fill="#FA5252"/>
<path d="M29.1875 16.9167C28.7557 16.9167 28.4062 16.5672 28.4062 16.1354V10.6667H15.125C14.6932 10.6667 14.3438 11.0161 14.3438 11.4479V20.0938H34.6562V16.9167H29.1875ZM17.4688 24.7813V27.9063C18.3301 27.9063 19.0312 27.2051 19.0312 26.3438C19.0312 25.4824 18.3301 24.7813 17.4688 24.7813ZM24.5 24.7813C24.069 24.7813 23.7188 25.1315 23.7188 25.5625V27.125C23.7188 27.556 24.069 27.9063 24.5 27.9063C24.931 27.9063 25.2812 27.556 25.2812 27.125V25.5625C25.2812 25.1315 24.931 24.7813 24.5 24.7813Z" fill="#FA5252"/>
<path d="M35.4375 21.6562H13.5625C13.131 21.6562 12.7812 22.0059 12.7812 22.4375V30.25C12.7812 30.6815 13.131 31.0312 13.5625 31.0312H35.4375C35.869 31.0312 36.2188 30.6815 36.2188 30.25V22.4375C36.2188 22.0059 35.869 21.6562 35.4375 21.6562ZM17.4688 29.4688H16.6875C16.2557 29.4688 15.9062 29.1193 15.9062 28.6875V24C15.9062 23.5682 16.2557 23.2188 16.6875 23.2188H17.4688C19.1922 23.2188 20.5938 24.6203 20.5938 26.3438C20.5938 28.0672 19.1922 29.4688 17.4688 29.4688ZM26.8438 27.125C26.8438 28.4174 25.7924 29.4688 24.5 29.4688C23.2076 29.4688 22.1562 28.4174 22.1562 27.125V25.5625C22.1562 24.2701 23.2076 23.2188 24.5 23.2188C25.7924 23.2188 26.8438 24.2701 26.8438 25.5625V27.125ZM30.75 27.9062C31.0498 27.9062 31.3276 27.7308 31.4565 27.4592C31.6426 27.0708 32.1072 26.9053 32.4979 27.0892C32.887 27.2746 33.0533 27.7407 32.8679 28.1306C32.4811 28.9431 31.6503 29.4688 30.75 29.4688C29.4576 29.4688 28.4062 28.4174 28.4062 27.125V25.5625C28.4062 24.2701 29.4576 23.2188 30.75 23.2188C31.796 23.2188 32.7237 23.9214 33.0068 24.9278C33.1235 25.3428 32.8817 25.7746 32.4658 25.8914C32.0508 26.0089 31.6197 25.7663 31.5022 25.3504C31.4084 25.0155 31.0986 24.7812 30.75 24.7812C30.319 24.7812 29.9688 25.1315 29.9688 25.5625V27.125C29.9688 27.556 30.319 27.9062 30.75 27.9062Z" fill="#FA5252"/>
</g>
<defs>
<clipPath id="clip0_84_224">
<rect width="26.6667" height="26.6667" fill="white" transform="translate(11.1667 10.6667)"/>
</clipPath>
</defs>
</svg>
