<svg width="25" height="25" viewBox="0 0 25 25" fill="none" xmlns="http://www.w3.org/2000/svg">
<path d="M13 12.525C12.337 12.525 11.7011 12.2748 11.2322 11.8294C10.7634 11.384 10.5 10.7799 10.5 10.15C10.5 9.52011 10.7634 8.91602 11.2322 8.47062C11.7011 8.02522 12.337 7.775 13 7.775C13.663 7.775 14.2989 8.02522 14.7678 8.47062C15.2366 8.91602 15.5 9.52011 15.5 10.15C15.5 10.4619 15.4353 10.7707 15.3097 11.0589C15.1841 11.347 14.9999 11.6088 14.7678 11.8294C14.5356 12.0499 14.26 12.2249 13.9567 12.3442C13.6534 12.4636 13.3283 12.525 13 12.525ZM13 3.5C11.1435 3.5 9.36301 4.20062 8.05025 5.44774C6.7375 6.69486 6 8.38631 6 10.15C6 15.1375 13 22.5 13 22.5C13 22.5 20 15.1375 20 10.15C20 8.38631 19.2625 6.69486 17.9497 5.44774C16.637 4.20062 14.8565 3.5 13 3.5Z" stroke="#DE221A" stroke-width="2"/>
</svg>
