<svg width="24" height="24" viewBox="0 0 24 24" fill="none" xmlns="http://www.w3.org/2000/svg">
<path fill-rule="evenodd" clip-rule="evenodd" d="M18.9473 14.9922V4.0002C18.9473 3.6972 18.8093 3.4092 18.5733 3.2202C18.3363 3.0302 18.0243 2.9582 17.7303 3.0242L8.7593 5.0172C8.3013 5.1192 7.9753 5.5252 7.9753 5.9932V14.3342C7.5353 14.1342 7.0513 14.0152 6.5363 14.0152C4.6103 14.0152 3.0443 15.5822 3.0443 17.5082C3.0443 19.4332 4.6103 21.0002 6.5363 21.0002C8.4623 21.0002 10.0283 19.4332 10.0283 17.5082C10.0283 17.3292 10.0023 17.1582 9.9753 16.9862V6.7962L16.9473 5.2462V12.3412C16.5073 12.1402 16.0223 12.0222 15.5083 12.0222C13.5823 12.0222 12.0153 13.5882 12.0153 15.5142C12.0153 17.4402 13.5823 19.0062 15.5083 19.0062C17.4333 19.0062 19.0003 17.4402 19.0003 15.5142C19.0003 15.3352 18.9733 15.1642 18.9473 14.9922Z" fill="#343A40"/>
</svg>
