<?xml version="1.0" encoding="utf-8"?>
<!-- Generator: Adobe Illustrator 16.0.0, SVG Export Plug-In . SVG Version: 6.00 Build 0)  -->
<!DOCTYPE svg PUBLIC "-//W3C//DTD SVG 1.1//EN" "http://www.w3.org/Graphics/SVG/1.1/DTD/svg11.dtd">
<svg version="1.1" id="Layer_1" xmlns="http://www.w3.org/2000/svg" xmlns:xlink="http://www.w3.org/1999/xlink" x="0px" y="0px"
	 width="320.5px" height="80px" viewBox="0 0 320.5 80" enable-background="new 0 0 320.5 80" xml:space="preserve">
<path fill="#E31C2A" d="M91.908,23.631c-3.786-10.682-16.239-6.424-27.749-4.851c-0.305,0.042-0.608,0.083-0.912,0.119
	c-0.03,0.004-0.058,0.007-0.088,0.012c-0.295,0.035-0.584,0.068-0.874,0.1c-0.017,0.002-0.034,0.003-0.054,0.006
	c-0.619,0.064-1.232,0.12-1.839,0.162c-0.036,0.002-0.071,0.005-0.104,0.006c-0.255,0.016-0.507,0.031-0.759,0.042
	c-0.07,0.002-0.136,0.006-0.205,0.008c-0.227,0.008-0.449,0.015-0.676,0.019c-0.067,0-0.136,0.002-0.206,0.004
	c-0.255,0.002-0.513,0.004-0.766,0c-0.026,0-0.054,0-0.082,0c-0.285-0.004-0.563-0.011-0.843-0.025
	c-0.057-0.001-0.109-0.006-0.163-0.01c-0.215-0.012-0.431-0.025-0.647-0.042c-0.086-0.008-0.173-0.016-0.259-0.024
	c-0.184-0.016-0.365-0.035-0.548-0.057c-0.092-0.01-0.184-0.014-0.274-0.034c-2.729-0.593-6.798-2.75-7.995-3.332
	c-10.847-5.303-28.506-4.387-38.624-0.99c-0.649-1.992-1.797-5.513-1.797-5.513L7.853,5.57L3.067,0.696L0.76,7.685l2.673,1.737
	c0,0,1.459,6.208,1.551,6.627l12.114,57.229c29.418-6.748,26.733,12.047,57.128,1.517c7.86-3.45,14.387-1.756,19.807,4.207
	l-0.004-0.006L94.035,79C104.853,61.173,71.512,28.245,91.908,23.631z"/>
<path fill="#FFED00" d="M51.498,51.253c-3.215-3.213-6.37-6.364-9.554-9.546c-1.037,0.911-2.034,1.79-3.11,2.736
	c-1.372-1.352-2.735-2.694-4.041-3.979c2.193-2.118,4.281-4.125,6.354-6.146c0.605-0.591,1.273-0.901,2.163-0.866
	c1.083,0.042,2.117-0.238,3.069-0.762c0.331-0.182,0.576-0.195,0.843,0.142c0.254,0.325,0.616,0.566,0.91,0.867
	c0.287,0.294,0.548,0.615,0.837,0.944c-1.208,1.171-2.359,2.284-3.563,3.455c3.146,3.314,6.356,6.478,9.781,9.536
	c0.687-0.906,1.086-1.855,1.205-2.869c0.643-5.442-1.052-10.029-5.403-13.557c-0.958-0.779-2.072-1.371-3.115-2.049
	c-0.147-0.096-0.3-0.183-0.451-0.274c0.009-0.054,0.021-0.104,0.033-0.158c0.838,0.107,1.689,0.16,2.518,0.328
	c5.861,1.19,10.712,6.412,11.427,12.23c0.344,2.821-0.115,5.489-1.438,8.019c-0.297,0.561-0.549,1.141-0.848,1.699
	c-0.164,0.307-0.099,0.514,0.155,0.744c0.74,0.676,1.458,1.378,2.14,2.027c-1.234,1.211-2.412,2.365-3.627,3.555
	c-0.672-0.637-1.422-1.324-2.141-2.051c-0.278-0.278-0.492-0.314-0.85-0.133c-1.693,0.836-3.408,1.646-5.287,2.011
	c-4.09,0.795-7.864-0.013-11.328-2.246c-0.952-0.611-1.864-1.281-2.839-1.957c-1.692,1.382-3.386,2.767-5.149,4.205
	c-0.836-0.988-1.652-1.954-2.531-2.991c2.427-1.99,4.783-3.92,7.133-5.852c0.328-0.271,0.564-0.17,0.85,0.09
	c3.286,3.02,7.202,4.412,11.69,4.189C48.782,52.523,50.178,52.104,51.498,51.253z"/>
<path fill="#1B2030" d="M119.371,31.857c0-0.664-0.234-1.174-0.703-1.529c-0.469-0.355-1.313-0.73-2.531-1.125
	c-1.218-0.395-2.184-0.783-2.895-1.166c-1.938-1.047-2.906-2.457-2.906-4.23c0-0.922,0.26-1.744,0.779-2.467
	c0.519-0.723,1.266-1.287,2.238-1.693c0.972-0.406,2.064-0.609,3.275-0.609c1.219,0,2.305,0.221,3.258,0.662
	c0.953,0.441,1.693,1.064,2.221,1.869c0.528,0.805,0.791,1.719,0.791,2.742h-3.516c0-0.781-0.246-1.389-0.738-1.822
	c-0.492-0.433-1.184-0.65-2.074-0.65c-0.859,0-1.527,0.182-2.004,0.545c-0.477,0.363-0.715,0.842-0.715,1.436
	c0,0.555,0.279,1.02,0.838,1.395s1.381,0.727,2.467,1.055c2,0.602,3.457,1.348,4.371,2.238c0.914,0.89,1.371,2,1.371,3.328
	c0,1.477-0.559,2.635-1.676,3.475c-1.117,0.84-2.621,1.26-4.512,1.26c-1.313,0-2.508-0.24-3.586-0.721s-1.9-1.139-2.467-1.975
	c-0.567-0.836-0.85-1.805-0.85-2.906h3.527c0,1.883,1.125,2.824,3.375,2.824c0.836,0,1.488-0.17,1.957-0.51
	C119.135,32.943,119.371,32.467,119.371,31.857z M139.292,28.189c0,1.68-0.297,3.152-0.891,4.418
	c-0.594,1.266-1.443,2.242-2.549,2.93s-2.373,1.031-3.803,1.031c-1.414,0-2.676-0.34-3.785-1.02c-1.109-0.68-1.969-1.65-2.578-2.912
	c-0.609-1.262-0.918-2.713-0.926-4.354v-0.844c0-1.68,0.303-3.158,0.908-4.436s1.461-2.258,2.566-2.941s2.369-1.025,3.791-1.025
	s2.686,0.342,3.791,1.025s1.961,1.664,2.566,2.941s0.908,2.752,0.908,4.424v0.763H139.292z M136.292,18.41l-2.426,0.006l-1.863-1.57
	l-1.875,1.57l-2.426-0.006l3.281-2.689h2.039L136.292,18.41z M135.73,27.416c0-1.789-0.32-3.148-0.961-4.078
	c-0.641-0.93-1.555-1.395-2.742-1.395c-1.18,0-2.09,0.459-2.73,1.377c-0.64,0.918-0.965,2.264-0.973,4.037v0.832
	c0,1.742,0.32,3.094,0.961,4.055c0.641,0.961,1.563,1.441,2.766,1.441c1.18,0,2.086-0.463,2.719-1.389
	c0.633-0.926,0.953-2.275,0.961-4.049L135.73,27.416L135.73,27.416z M135.203,16.928l-0.152-1.336
	c0.484-0.023,0.834-0.084,1.049-0.182c0.215-0.098,0.322-0.248,0.322-0.451c0-0.469-0.473-0.703-1.418-0.703l0.07-1.324
	c1.133,0,1.984,0.17,2.555,0.51c0.571,0.34,0.855,0.811,0.855,1.412c0,0.375-0.131,0.693-0.393,0.955
	c-0.262,0.262-0.623,0.42-1.084,0.475l-0.012,0.645L135.203,16.928L135.203,16.928z M159.964,22.119h-5.227v14.215h-3.516V22.119
	h-5.156v-2.848h13.898L159.964,22.119L159.964,22.119z M170.195,32.818h-6.164l-1.172,3.516h-3.738l6.352-17.063h3.258l6.387,17.063
	h-3.738L170.195,32.818z M164.98,29.971h4.266l-2.145-6.387L164.98,29.971z M180.836,26.959l3.551-7.688h3.844l-5.602,10.875v6.188
	h-3.574v-6.188l-5.602-10.875h3.855L180.836,26.959z M196.117,36.334v-7.523h-2.109v-2.145h2.109v-7.395h5.25
	c1.5,0,2.842,0.338,4.025,1.014c1.183,0.676,2.106,1.637,2.771,2.883s0.996,2.662,0.996,4.248v0.785c0,1.586-0.326,2.996-0.979,4.23
	c-0.652,1.234-1.572,2.191-2.76,2.871c-1.188,0.68-2.527,1.023-4.02,1.031L196.117,36.334L196.117,36.334z M202.199,28.811h-2.566
	v4.699h1.699c1.391,0,2.449-0.459,3.176-1.377s1.09-2.229,1.09-3.932v-0.797c0-1.734-0.358-3.049-1.078-3.943
	c-0.719-0.894-1.77-1.342-3.151-1.342h-1.734v4.547h2.566L202.199,28.811L202.199,28.811z M221.102,32.818h-6.164l-1.172,3.516
	h-3.738l6.353-17.063h3.259l6.387,17.063h-3.738L221.102,32.818z M215.887,29.971h4.266l-2.145-6.387L215.887,29.971z
	 M216.777,17.877l-0.176-1.57c0.569-0.031,0.981-0.104,1.235-0.217c0.254-0.113,0.381-0.295,0.381-0.545
	c0-0.539-0.555-0.809-1.663-0.809l0.081-1.582c1.47,0,2.576,0.203,3.322,0.609c0.746,0.406,1.119,0.965,1.119,1.676
	c0,0.461-0.16,0.838-0.479,1.131c-0.32,0.293-0.746,0.479-1.277,0.557v0.75H216.777z M241.492,36.334h-3.516l-6.845-11.227v11.227
	h-3.516V19.271h3.516l6.854,11.25v-11.25h3.505L241.492,36.334L241.492,36.334z M258.063,34.178
	c-0.633,0.758-1.526,1.346-2.684,1.764c-1.156,0.418-2.438,0.627-3.844,0.627c-1.477,0-2.771-0.322-3.885-0.967
	c-1.114-0.645-1.974-1.58-2.578-2.807c-0.605-1.227-0.916-2.668-0.932-4.324v-1.16c0-1.703,0.286-3.178,0.86-4.424
	c0.574-1.246,1.401-2.199,2.483-2.859c1.082-0.66,2.351-0.99,3.804-0.99c2.022,0,3.604,0.482,4.746,1.447
	c1.141,0.965,1.815,2.369,2.026,4.213h-3.422c-0.156-0.977-0.502-1.691-1.037-2.145c-0.535-0.454-1.271-0.68-2.209-0.68
	c-1.195,0-2.104,0.449-2.729,1.348c-0.625,0.899-0.94,2.234-0.949,4.008v1.09c0,1.789,0.341,3.141,1.021,4.055
	s1.676,1.371,2.988,1.371c1.319,0,2.262-0.281,2.823-0.844V29.96h-3.198v-2.59h6.715V34.178L258.063,34.178z M273.191,32.104
	l3.867-12.832h3.914l-5.941,17.063h-3.668l-5.918-17.063h3.902L273.191,32.104z M286.316,36.334H282.8V19.271h3.517V36.334z
	 M299.84,28.939h-6.75v4.57h7.922v2.824h-11.438V19.271h11.414v2.848h-7.898v4.066h6.75V28.939z M299.992,17.941v0.141l-2.695,0.006
	l-1.805-1.699l-1.805,1.699l-2.648-0.006v-0.187l3.469-3.229h1.969L299.992,17.941z M316.949,36.334h-3.516l-6.845-11.227v11.227
	h-3.516V19.271h3.516l6.854,11.25v-11.25h3.505L316.949,36.334L316.949,36.334z"/>
<path fill="#E31C2A" d="M109.584,52.139v-4.543h11.873v4.543h-3.194v20.284h-5.484V52.139H109.584z M123.71,47.596h5.484v8.873
	h2.556v-8.873h5.483v24.827h-5.483V61.012h-2.556v11.411h-5.484V47.596z M140.073,72.423v-4.862c0-4.638,0.349-8.564,1.047-11.783
	c0.355-1.573,0.805-3.049,1.349-4.428c0.544-1.379,1.195-2.629,1.952-3.754h4.916c1.467,2.248,2.567,4.986,3.301,8.217
	c0.355,1.573,0.621,3.34,0.798,5.297c0.178,1.959,0.267,4.108,0.267,6.451v4.862h-5.501v-4.1h-2.68v4.1H140.073z M143.125,42.146
	h3.993l1.419,3.815h-3.212L143.125,42.146z M145.521,63.656h2.68c-0.036-2.201-0.166-4.295-0.391-6.282
	c-0.249-1.976-0.562-3.524-0.94-4.649c-0.415,1.289-0.734,2.84-0.958,4.649C145.734,58.924,145.604,61.018,145.521,63.656z
	 M156.524,47.596h5.093c0.426,0.688,0.947,1.656,1.562,2.91c0.461,0.982,0.97,2.194,1.526,3.639v-6.549h5.448v24.827h-5.448v-4.862
	c0-2.164-0.23-4.188-0.692-6.068c-0.438-1.977-1.106-3.821-2.005-5.537v16.469h-5.484V47.596z M173.525,47.596h5.484v8.873h2.556
	v-8.873h5.483v24.827h-5.483V61.012h-2.556v11.411h-5.484V47.596z M203.766,65.146v0.728c0,0.959,0.101,1.567,0.301,1.828
	c0.201,0.237,0.552,0.354,1.05,0.354c0.495,0,0.862-0.143,1.1-0.427c0.188-0.319,0.283-1.047,0.283-2.183v-0.303V47.596h5.483
	v16.823c0,3.063-0.532,5.224-1.598,6.478c-1.006,1.23-2.762,1.847-5.27,1.847c-2.461,0-4.219-0.615-5.271-1.847
	c-1.041-1.276-1.563-3.437-1.563-6.478V47.596h5.484V65.146L203.766,65.146z M217.803,65.378c-1.313-2.354-2.33-4.999-3.053-7.935
	c-0.344-1.562-0.6-3.094-0.771-4.596s-0.258-3.082-0.258-4.738v-0.514h5.484c0.059,3.193,0.207,5.885,0.443,8.073
	c0.201,2.118,0.502,3.668,0.903,4.649c0.345-0.816,0.646-2.379,0.906-4.686c0.26-2.201,0.408-4.881,0.442-8.039h5.447V48.8
	c0,2.972-0.348,5.898-1.047,8.785c-0.33,1.433-0.744,2.783-1.242,4.056c-0.496,1.271-1.088,2.518-1.772,3.735v7.045h-5.483V65.378
	L217.803,65.378z M219.541,46.441c0.023-0.379,0.09-0.728,0.195-1.047c0.106-0.402,0.309-0.853,0.604-1.349
	c0-0.012,0.055-0.103,0.16-0.269c0.379-0.59,0.574-1.094,0.586-1.508c0-0.318-0.023-0.525-0.07-0.621
	c-0.049-0.059-0.125-0.088-0.231-0.088c-0.104,0-0.177,0.023-0.214,0.07c-0.034,0.047-0.059,0.266-0.069,0.656v1.029h-2.358v-0.924
	c0-1.053,0.2-1.797,0.604-2.235c0.389-0.438,1.064-0.663,2.021-0.674c0.899,0,1.592,0.237,2.075,0.71
	c0.476,0.45,0.712,1.124,0.712,2.023c0,0.769-0.298,1.608-0.888,2.521c-0.119,0.166-0.188,0.266-0.213,0.302
	c-0.25,0.414-0.445,0.786-0.586,1.118c-0.035,0.095-0.065,0.189-0.091,0.283h-2.236V46.441z M237.199,47.596h5.484v8.873h2.555
	v-8.873h5.484v24.827h-5.484V61.012h-2.555v11.411h-5.484V47.596z M253.563,72.423v-4.862c0-4.638,0.351-8.564,1.047-11.783
	c0.355-1.573,0.806-3.049,1.351-4.428c0.543-1.379,1.192-2.629,1.951-3.754h4.916c1.467,2.248,2.565,4.986,3.301,8.217
	c0.354,1.573,0.621,3.34,0.799,5.297c0.179,1.959,0.267,4.108,0.267,6.451v4.862h-5.502v-4.1h-2.681v4.1H253.563z M256.615,42.146
	h3.992l1.42,3.815h-3.213L256.615,42.146z M259.01,63.656h2.68c-0.035-2.201-0.164-4.295-0.389-6.282
	c-0.25-1.976-0.563-3.524-0.941-4.649c-0.414,1.289-0.733,2.84-0.959,4.649C259.223,58.924,259.094,61.018,259.01,63.656z
	 M278.018,47.596h5.094c0.427,0.688,0.945,1.656,1.562,2.91c0.461,0.982,0.972,2.194,1.527,3.639v-6.549h5.446v24.827H286.2v-4.862
	c0-2.164-0.232-4.188-0.693-6.068c-0.438-1.977-1.104-3.821-2.006-5.537v16.469h-5.481V47.596H278.018z M294.77,55.6
	c0-1.55,0.131-2.854,0.392-3.914c0.26-1.059,0.661-1.912,1.207-2.563c1.018-1.23,2.784-1.848,5.307-1.848
	c2.484,0,4.252,0.617,5.306,1.848c1.028,1.254,1.563,3.413,1.598,6.479v8.818c0,3.064-0.531,5.225-1.598,6.479
	c-1.004,1.229-2.773,1.846-5.306,1.846c-2.495,0-4.266-0.615-5.307-1.846c-1.029-1.254-1.563-3.414-1.599-6.479V55.6z
	 M299.455,42.146h4.436l2.113,3.815h-3.266l-1.064-1.668l-1.047,1.668h-3.266L299.455,42.146z M299.898,78.208v-3.496h3.565v3.496
	H299.898z M300.324,54.871v11.003c0,0.959,0.102,1.567,0.303,1.828c0.201,0.237,0.549,0.354,1.047,0.354
	c0.508,0,0.857-0.131,1.047-0.391c0.201-0.309,0.301-0.964,0.301-1.971v-0.551V54.32c0-1.028-0.1-1.668-0.301-1.916
	c-0.178-0.271-0.527-0.407-1.047-0.407c-0.533,0-0.883,0.124-1.047,0.372c-0.201,0.261-0.303,0.852-0.303,1.773V54.871z
	 M311.664,47.596h5.482v24.827h-5.482V47.596z"/>
</svg>
