<svg width="32" height="32" viewBox="0 0 32 32" fill="none" xmlns="http://www.w3.org/2000/svg">
<g filter="url(#filter0_d_408_4782)">
<rect x="4" y="4" width="24" height="24" rx="12" fill="white"/>
<rect x="4" y="4" width="24" height="24" rx="12" fill="#142141" fill-opacity="0.06"/>
<path d="M18.8104 9C19.0319 9 19.2513 9.04527 19.4559 9.13321C19.6606 9.22116 19.8466 9.35006 20.0032 9.51256C20.1599 9.67507 20.2841 9.86798 20.3689 10.0803C20.4537 10.2926 20.4973 10.5202 20.4973 10.75V11.3357H21.0596C21.7059 11.3361 22.3256 11.6025 22.7827 12.0764C23.2398 12.5503 23.497 13.193 23.4978 13.8634L23.5 18.5278C23.5001 18.7575 23.4566 18.985 23.3719 19.1972C23.2873 19.4095 23.1632 19.6024 23.0067 19.7649C22.8502 19.9274 22.6643 20.0563 22.4598 20.1443C22.2553 20.2323 22.036 20.2777 21.8146 20.2778H20.4958V21.25C20.4958 21.7141 20.3181 22.1592 20.0017 22.4874C19.6854 22.8156 19.2563 23 18.8089 23H13.1859C12.7385 23 12.3094 22.8156 11.993 22.4874C11.6767 22.1592 11.499 21.7141 11.499 21.25V20.2778H10.1869C9.73951 20.2778 9.31044 20.0934 8.99408 19.7652C8.67773 19.437 8.5 18.9919 8.5 18.5278V13.8642C8.5 13.1938 8.75672 12.5509 9.21368 12.0768C9.67064 11.6028 10.2904 11.3364 10.9366 11.3364L11.4982 11.3357L11.499 10.75C11.499 10.2859 11.6767 9.84075 11.993 9.51256C12.3094 9.18437 12.7385 9 13.1859 9H18.8104ZM18.8089 17.1667H13.1859C13.0367 17.1667 12.8937 17.2281 12.7883 17.3375C12.6828 17.4469 12.6236 17.5953 12.6236 17.75V21.25C12.6236 21.572 12.8755 21.8333 13.1859 21.8333H18.8089C18.958 21.8333 19.101 21.7719 19.2065 21.6625C19.312 21.5531 19.3712 21.4047 19.3712 21.25V17.75C19.3712 17.5953 19.312 17.4469 19.2065 17.3375C19.101 17.2281 18.958 17.1667 18.8089 17.1667ZM21.0596 12.5031H10.9366C10.5887 12.5031 10.2549 12.6465 10.0089 12.9018C9.76284 13.157 9.62461 13.5032 9.62461 13.8642V18.5278C9.62461 18.8498 9.87652 19.1111 10.1869 19.1111H11.499V17.75C11.499 17.2859 11.6767 16.8408 11.993 16.5126C12.3094 16.1844 12.7385 16 13.1859 16H18.8089C19.2563 16 19.6854 16.1844 20.0017 16.5126C20.3181 16.8408 20.4958 17.2859 20.4958 17.75V19.1111H21.8326C21.9782 19.1061 22.1163 19.0425 22.2176 18.9338C22.3189 18.8251 22.3755 18.6797 22.3754 18.5286L22.3731 13.8642C22.3724 13.5032 22.2337 13.1573 21.9875 12.9021C21.7412 12.647 21.4076 12.5035 21.0596 12.5031ZM18.8104 10.1667H13.1859C13.0367 10.1667 12.8937 10.2281 12.7883 10.3375C12.6828 10.4469 12.6236 10.5953 12.6236 10.75L12.6228 11.3357H19.3727V10.75C19.3727 10.5953 19.3135 10.4469 19.208 10.3375C19.1025 10.2281 18.9595 10.1667 18.8104 10.1667Z" fill="#DE221A"/>
</g>
<defs>
<filter id="filter0_d_408_4782" x="0" y="0" width="32" height="32" filterUnits="userSpaceOnUse" color-interpolation-filters="sRGB">
<feFlood flood-opacity="0" result="BackgroundImageFix"/>
<feColorMatrix in="SourceAlpha" type="matrix" values="0 0 0 0 0 0 0 0 0 0 0 0 0 0 0 0 0 0 127 0" result="hardAlpha"/>
<feOffset/>
<feGaussianBlur stdDeviation="2"/>
<feComposite in2="hardAlpha" operator="out"/>
<feColorMatrix type="matrix" values="0 0 0 0 0 0 0 0 0 0 0 0 0 0 0 0 0 0 0.05 0"/>
<feBlend mode="normal" in2="BackgroundImageFix" result="effect1_dropShadow_408_4782"/>
<feBlend mode="normal" in="SourceGraphic" in2="effect1_dropShadow_408_4782" result="shape"/>
</filter>
</defs>
</svg>
