<svg width="40" height="40" viewBox="0 0 40 40" fill="none" xmlns="http://www.w3.org/2000/svg">
<rect width="40" height="40" rx="20" fill="#EDF2FF"/>
<path fill-rule="evenodd" clip-rule="evenodd" d="M15.5 27V23H24.5L24.502 27H15.5ZM16.014 13H24V15H16.007L16.014 13ZM27.363 15H26V13C26 11.897 25.178 11 24.167 11H15.833C14.822 11 14 11.897 14 13V15H12.637C11.183 15 10 16.196 10 17.667V24.333C10 25.804 11.183 27 12.637 27H13.5C13.5 28.103 14.397 29 15.5 29H24.5C25.603 29 26.5 28.103 26.5 27H27.363C28.817 27 30 25.804 30 24.333V17.667C30 16.196 28.817 15 27.363 15Z" fill="#DE221A"/>
</svg>
