<svg width="24" height="24" viewBox="0 0 24 24" fill="none" xmlns="http://www.w3.org/2000/svg">
<path d="M12 0C5.37281 0 0 5.37094 0 12C0 18.6291 5.37281 24 12 24C18.6272 24 24 18.6258 24 12C24 5.37422 18.6272 0 12 0Z" fill="#2AD352"/>
<path d="M1.11441e-05 12C-0.00269773 13.9835 0.488482 15.9365 1.42923 17.6827C2.62777 18.0346 3.87057 18.2128 5.1197 18.2119C12.3338 18.2119 18.1819 12.3638 18.1819 5.1497C18.183 3.88077 17.9992 2.61845 17.6363 1.40252C15.9015 0.47848 13.9655 -0.00325657 12 1.65685e-05C5.37282 1.65685e-05 1.11441e-05 5.37095 1.11441e-05 12Z" fill="#74DA7F"/>
<path d="M18.8438 10.0115L11.6311 17.5861C11.4346 17.7923 11.1984 17.9567 10.9368 18.0695C10.6752 18.1822 10.3935 18.241 10.1086 18.2423H10.0992C9.81595 18.2424 9.53553 18.1856 9.27464 18.0752C9.01374 17.9648 8.77769 17.8031 8.5805 17.5997L4.75315 13.6575C4.5554 13.459 4.39904 13.2232 4.29315 12.9638C4.18726 12.7043 4.13395 12.4265 4.13631 12.1463C4.13867 11.8661 4.19665 11.5892 4.3069 11.3316C4.41714 11.074 4.57746 10.8408 4.77853 10.6457C4.9796 10.4506 5.21742 10.2973 5.4782 10.1948C5.73898 10.0923 6.01752 10.0426 6.29765 10.0487C6.57779 10.0547 6.85393 10.1163 7.11007 10.2299C7.3662 10.3435 7.59722 10.5068 7.78971 10.7105L10.0842 13.0739L15.7791 7.09358C15.9699 6.88902 16.1993 6.72431 16.4541 6.60899C16.709 6.49367 16.9841 6.43001 17.2637 6.42171C17.5433 6.41341 17.8218 6.46062 18.083 6.56062C18.3442 6.66061 18.583 6.81141 18.7856 7.00429C18.9882 7.19716 19.1505 7.42829 19.2632 7.6843C19.3758 7.94031 19.4367 8.21612 19.4421 8.49578C19.4475 8.77543 19.3974 9.05339 19.2947 9.31357C19.192 9.57374 19.0387 9.81098 18.8438 10.0115Z" fill="white"/>
</svg>
