<svg id="Layer_1" data-name="Layer 1" xmlns="http://www.w3.org/2000/svg" viewBox="0 0 310.28 80"><defs><style>.cls-1,.cls-4{fill:#e31c2a;}.cls-2{fill:#ffed00;}.cls-3{fill:#1b2030;}.cls-4{stroke:#e21e2b;stroke-miterlimit:10;stroke-width:0.5px;}</style></defs><title>STDVDN</title><path class="cls-1" d="M91.91,23.63C88.12,13,75.67,17.21,64.16,18.78l-.91.12h-.09l-.88.1h-.05c-.62.06-1.23.12-1.84.16h-.1l-.76,0H57.59l-.84,0h-.16l-.65,0-.26,0-.55-.06-.27,0c-2.73-.6-6.8-2.75-8-3.34-10.85-5.3-28.51-4.38-38.63-1L6.44,9.23,7.85,5.57,3.07.7l-2.31,7L3.43,9.42S4.89,15.63,5,16.05L17.1,73.28c29.42-6.75,26.73,12,57.13,1.51C82.09,71.35,88.61,73,94,79h0C104.85,61.17,71.51,28.25,91.91,23.63Z"/><path class="cls-2" d="M51.5,51.25l-9.56-9.54-3.11,2.73-4-4c2.2-2.11,4.28-4.12,6.36-6.14a2.77,2.77,0,0,1,2.16-.87,5.91,5.91,0,0,0,3.07-.76.56.56,0,0,1,.84.14,12.46,12.46,0,0,0,.91.87c.29.29.55.61.84.94L45.41,38.1c3.14,3.31,6.35,6.48,9.78,9.53a5.83,5.83,0,0,0,1.2-2.87A14.28,14.28,0,0,0,51,31.21a35,35,0,0,0-3.12-2.05c-.14-.1-.3-.18-.45-.27a.75.75,0,0,1,0-.16c.83.1,1.68.16,2.51.32A14.8,14.8,0,0,1,61.4,41.28a13.29,13.29,0,0,1-1.44,8c-.29.56-.55,1.14-.84,1.7a.54.54,0,0,0,.15.75c.74.67,1.46,1.37,2.14,2l-3.63,3.56c-.67-.64-1.42-1.33-2.14-2a.61.61,0,0,0-.85-.13,21.63,21.63,0,0,1-5.28,2,15,15,0,0,1-11.33-2.25c-1-.61-1.87-1.28-2.84-2l-5.15,4.21-2.53-3,7.13-5.85c.33-.28.57-.17.85.09a15.48,15.48,0,0,0,11.69,4.18A8.32,8.32,0,0,0,51.5,51.25Z"/><path class="cls-3" d="M118.87,30.69a1.86,1.86,0,0,0-.66-1.53,8.75,8.75,0,0,0-2.4-1.12,17.37,17.37,0,0,1-2.75-1.17,4.75,4.75,0,0,1-2.75-4.23,4.33,4.33,0,0,1,.74-2.47,4.89,4.89,0,0,1,2.12-1.69,7.56,7.56,0,0,1,3.1-.61,7,7,0,0,1,3.09.66,5,5,0,0,1,2.11,1.87,5.1,5.1,0,0,1,.75,2.74h-3.34a2.37,2.37,0,0,0-.69-1.82,2.82,2.82,0,0,0-2-.65,2.91,2.91,0,0,0-1.9.55,1.75,1.75,0,0,0-.68,1.43,1.68,1.68,0,0,0,.8,1.4,8.9,8.9,0,0,0,2.33,1.05,10,10,0,0,1,4.15,2.24,4.61,4.61,0,0,1,1.3,3.33,4.18,4.18,0,0,1-1.59,3.47,6.71,6.71,0,0,1-4.28,1.26,7.91,7.91,0,0,1-3.4-.72,5.51,5.51,0,0,1-2.34-2,5.34,5.34,0,0,1-.8-2.91h3.34c0,1.88,1.07,2.83,3.2,2.83a3,3,0,0,0,1.86-.51A1.71,1.71,0,0,0,118.87,30.69ZM137.76,27a10.86,10.86,0,0,1-.84,4.42,6.64,6.64,0,0,1-2.42,2.93,6.82,6.82,0,0,1-7.19,0,6.65,6.65,0,0,1-2.45-2.91,10.47,10.47,0,0,1-.88-4.36v-.84a10.82,10.82,0,0,1,.86-4.44,6.78,6.78,0,0,1,2.44-2.94,6.85,6.85,0,0,1,7.19,0,6.83,6.83,0,0,1,2.43,2.94,10.81,10.81,0,0,1,.86,4.43V27Zm-2.84-9.78h-2.3l-1.77-1.57-1.78,1.57h-2.3l3.11-2.69h1.94Zm-.54,9a7.47,7.47,0,0,0-.91-4.08,3.13,3.13,0,0,0-5.19,0,7.52,7.52,0,0,0-.92,4V27a7.68,7.68,0,0,0,.91,4.06,2.94,2.94,0,0,0,2.63,1.44,2.9,2.9,0,0,0,2.57-1.39,7.5,7.5,0,0,0,.91-4.05v-.83Zm-.5-10.49-.14-1.34a2.63,2.63,0,0,0,1-.18.48.48,0,0,0,.31-.45c0-.47-.45-.7-1.34-.7l.06-1.33a4.59,4.59,0,0,1,2.42.51,1.58,1.58,0,0,1,.81,1.42,1.32,1.32,0,0,1-.37,1,1.69,1.69,0,0,1-1,.48v.64ZM157.36,21h-5V35.17h-3.33V21h-4.89V18.1h13.18V21Zm9.7,10.7h-5.84l-1.12,3.52h-3.54l6-17.07h3.09l6.06,17.07h-3.55Zm-4.95-2.85h4l-2-6.38Zm15-3,3.36-7.69h3.65L178.85,29v6.19h-3.39V29L170.15,18.1h3.65Zm14.49,9.38V27.64h-2V25.5h2V18.1h5a7.23,7.23,0,0,1,3.82,1A6.87,6.87,0,0,1,203.06,22a9.29,9.29,0,0,1,.94,4.25V27a9.27,9.27,0,0,1-.93,4.23,6.86,6.86,0,0,1-2.61,2.87,7.36,7.36,0,0,1-3.82,1Zm5.76-7.53H195v4.7h1.61a3.55,3.55,0,0,0,3-1.37,6.46,6.46,0,0,0,1-3.94v-.79a6.47,6.47,0,0,0-1-3.95,3.54,3.54,0,0,0-3-1.34H195V25.5h2.43v2.14Zm17.92,4h-5.84l-1.11,3.52h-3.55l6-17.07h3.09L220,35.17h-3.54Zm-4.94-2.85h4l-2-6.38Zm.84-12.09-.16-1.57a3.26,3.26,0,0,0,1.17-.22.56.56,0,0,0,.36-.54c0-.54-.53-.81-1.58-.81l.08-1.58a6.43,6.43,0,0,1,3.15.61,1.86,1.86,0,0,1,1.06,1.67,1.48,1.48,0,0,1-.46,1.13,2.11,2.11,0,0,1-1.21.56v.75Zm23.43,18.46h-3.33l-6.49-11.23V35.17H221.5V18.1h3.33l6.5,11.25V18.1h3.32V35.17ZM250.36,33a5.65,5.65,0,0,1-2.54,1.76,10.12,10.12,0,0,1-3.64.63,6.91,6.91,0,0,1-3.69-1,6.32,6.32,0,0,1-2.44-2.8,10.35,10.35,0,0,1-.89-4.33V26.14a11.07,11.07,0,0,1,.82-4.42,6.26,6.26,0,0,1,2.35-2.86,7.42,7.42,0,0,1,8.11.46,6.31,6.31,0,0,1,1.92,4.21h-3.24a3.44,3.44,0,0,0-1-2.14,3,3,0,0,0-2.09-.68,2.9,2.9,0,0,0-2.59,1.34,7.46,7.46,0,0,0-.9,4v1.09a7.09,7.09,0,0,0,1,4.06,3.25,3.25,0,0,0,2.83,1.37,3.55,3.55,0,0,0,2.68-.85V28.79h-3V26.2h6.36V33Zm14.35-2.07,3.66-12.84h3.71l-5.63,17.07H263L257.36,18.1h3.7Zm12.44,4.23h-3.33V18.1h3.33V35.17ZM290,27.77h-6.4v4.57h7.51v2.83H280.24V18.1h10.82V21h-7.49V25H290Zm.15-11v.14h-2.56l-1.71-1.7-1.71,1.7h-2.51v-.18l3.29-3.23h1.86Zm16.07,18.4h-3.33l-6.49-11.23V35.17H293V18.1h3.33l6.5,11.25V18.1h3.32V35.17Z"/><polygon class="cls-4" points="109.81 48.09 109.81 51.93 113.24 51.93 113.24 72.05 117.97 72.05 117.97 51.93 121.28 51.93 121.28 48.09 109.81 48.09"/><rect class="cls-4" x="123.27" y="48.09" width="4.76" height="23.95"/><path class="cls-4" d="M125.54,41.67a2.55,2.55,0,0,0-2.27,1.1,2.12,2.12,0,0,0-.36,1.2v.34h1.83v-.56c0-.34.22-.5.68-.5s.68.16.68.5v.41a.92.92,0,0,1-.24.66l-.6.7a1.49,1.49,0,0,0-.3,1v.14h2.17a1.61,1.61,0,0,1,.46-1.22,2.3,2.3,0,0,0,.86-1.64,1.85,1.85,0,0,0-.64-1.46A3.31,3.31,0,0,0,125.54,41.67Z"/><path class="cls-4" d="M138.68,52.27a38.83,38.83,0,0,0-2.86-4.18h-3.91v24h4.62V58.16c0-1.67-.07-3.21-.2-4.62A9.32,9.32,0,0,1,138.24,58a31.55,31.55,0,0,1,.24,4.65v9.44h4.59v-24h-4.59Z"/><polygon class="cls-4" points="153.42 57.03 151.47 57.03 151.47 48.09 146.85 48.09 146.85 72.05 151.47 72.05 151.47 59.92 153.42 59.92 153.42 72.05 158.01 72.05 158.01 48.09 153.42 48.09 153.42 57.03"/><path class="cls-4" d="M173.73,43.75c0-.34.23-.5.69-.5s.68.16.68.5v.41a.89.89,0,0,1-.25.66l-.59.7a1.44,1.44,0,0,0-.31,1v.14h2.17a1.61,1.61,0,0,1,.47-1.22,2.28,2.28,0,0,0,.85-1.64,1.87,1.87,0,0,0-.63-1.46,3.33,3.33,0,0,0-2.27-.67,2.54,2.54,0,0,0-2.27,1.1,2.05,2.05,0,0,0-.37,1.2v.34h1.83Z"/><path class="cls-4" d="M175.88,67.63c0,1.19-.31,1.78-.93,1.78s-.95-.59-.95-1.78V48.09h-4.71V66.36a7.75,7.75,0,0,0,.83,4.15c.84,1.23,2.46,1.84,4.83,1.84s4-.62,4.79-1.86a7.62,7.62,0,0,0,.85-4.13V48.09h-4.71Z"/><path class="cls-4" d="M189.67,50.17c0,4.64-.31,7.84-.95,9.6q-.94-2.28-.95-9.54V48.09h-4.59q0,9.73,3.25,15.72v8.24h4.63V63.81a32.13,32.13,0,0,0,3.25-14.52v-1.2h-4.64Z"/><path class="cls-4" d="M210.79,48.09h-6v9.37h-1.39v2h1.39V72.05h6q3.59,0,4.86-1.22c.73-.68,1.1-1.91,1.1-3.66V53c0-1.75-.37-3-1.1-3.66S213.18,48.09,210.79,48.09Zm1.2,19a3.12,3.12,0,0,1-.25,1.54c-.26.37-.88.56-1.85.56h-.39V59.5h1.39v-2H209.5V51h.34a2.37,2.37,0,0,1,1.88.55,2.93,2.93,0,0,1,.27,1.56Z"/><polygon class="cls-4" points="232.02 42.56 230.41 39.52 226.31 39.52 228.87 42.56 232.02 42.56"/><polygon class="cls-4" points="225.46 45.3 226.75 46.52 230.17 46.52 227.41 43.47 223.51 43.47 220.75 46.52 224.17 46.52 225.46 45.3"/><path class="cls-4" d="M225.46,47.79c-2.39,0-4,.62-4.83,1.88a7.56,7.56,0,0,0-.86,4.14V66.36a7.62,7.62,0,0,0,.86,4.15q1.25,1.84,4.83,1.84t4.86-1.84a7.68,7.68,0,0,0,.85-4.15V53.81a7.7,7.7,0,0,0-.85-4.16Q229,47.79,225.46,47.79Zm.95,19.84a5.59,5.59,0,0,1,0,1.09.83.83,0,0,1-.9.69c-.62,0-.93-.59-.93-1.78V52.46c0-1.19.31-1.78.93-1.78s.95.59.95,1.78Z"/><path class="cls-4" d="M241.38,52.27a38.83,38.83,0,0,0-2.86-4.18h-3.9v24h4.61V58.16c0-1.67-.07-3.21-.2-4.62A9.22,9.22,0,0,1,240.94,58a31.55,31.55,0,0,1,.24,4.65v9.44h4.59v-24h-4.59Z"/><path class="cls-4" d="M254.93,47.79c-2.4,0-4,.62-4.84,1.88a7.57,7.57,0,0,0-.85,4.14V66.36a9.76,9.76,0,0,0,.56,4q1,2,4.25,2c1.9,0,3.15-.46,3.73-1.39l.47,1h2.39V57h-5.81v2.9h1v7.77a6.64,6.64,0,0,1,0,1.09.83.83,0,0,1-.9.69c-.62,0-.93-.59-.93-1.78V52.46c0-1.19.31-1.78.93-1.78s.95.6.95,1.79v2.61h4.76V53.81a7.79,7.79,0,0,0-.85-4.16Q258.52,47.79,254.93,47.79Z"/><path class="cls-4" d="M278.66,52.27a38.83,38.83,0,0,0-2.86-4.18h-3.91v24h4.62V58.16c0-1.67-.07-3.21-.2-4.62A9.32,9.32,0,0,1,278.22,58a31.55,31.55,0,0,1,.24,4.65v9.44h4.59v-24h-4.59Z"/><path class="cls-4" d="M289.49,48.09q-2.89,5.91-2.9,19.37v4.59h4.66V67.46h1.88v4.59h4.67V67.46q0-13.3-3-19.37Zm1.66,16.47a60.22,60.22,0,0,1,1-12.49,34.23,34.23,0,0,1,.85,6.24c.07,1,.13,3.09.2,6.25Z"/><rect class="cls-4" x="301.43" y="48.09" width="4.76" height="23.95"/></svg>