<svg width="41" height="41" viewBox="0 0 41 41" fill="none" xmlns="http://www.w3.org/2000/svg">
<rect x="0.661377" y="0.5" width="40" height="40" rx="20" fill="white"/>
<path fill-rule="evenodd" clip-rule="evenodd" d="M17.3922 27.1675C23.4305 27.1675 26.9238 22.4792 26.9238 18.03C26.9238 17.9075 27.7822 17.1709 28.1497 15.635C28.2247 15.3234 27.9213 15.0775 27.6355 15.2084C26.9022 15.545 26.158 15.2784 25.8347 14.895C24.5913 13.5392 22.5122 13.4742 21.1897 14.7492C20.3372 15.5717 19.9755 16.7967 20.2397 17.9659C17.4472 18.165 15.5297 16.8417 13.953 15.0275C13.7497 14.7917 13.3722 14.9159 13.3297 15.2275C13.0963 16.9625 13.023 21.1809 17.203 23.6034C16.4772 24.6467 15.0563 25.2625 13.4747 25.5267C13.1247 25.5859 13.0413 26.0709 13.3613 26.2275C14.6147 26.8442 15.9922 27.1667 17.3922 27.165" fill="#BC2826"/>
</svg>
