<svg width="26" height="22" viewBox="0 0 26 22" fill="none" xmlns="http://www.w3.org/2000/svg">
<path d="M25.1421 3.32758C24.3496 3.66866 23.5164 3.90618 22.6631 4.03425C23.062 3.96586 23.649 3.24779 23.8827 2.95715C24.2376 2.51874 24.5082 2.01825 24.6805 1.48112C24.6805 1.44123 24.7204 1.38424 24.6805 1.35574C24.6604 1.34477 24.6379 1.33902 24.615 1.33902C24.5921 1.33902 24.5696 1.34477 24.5494 1.35574C23.6229 1.85749 22.6368 2.24044 21.6145 2.49553C21.5789 2.50642 21.5409 2.5074 21.5048 2.49836C21.4687 2.48932 21.4356 2.47062 21.4093 2.44424C21.3298 2.34949 21.2441 2.26001 21.1529 2.17639C20.7359 1.8028 20.2628 1.49703 19.7509 1.27026C19.06 0.986782 18.3136 0.864014 17.5682 0.911227C16.845 0.956903 16.1389 1.15089 15.4938 1.48112C14.8586 1.82928 14.3003 2.30227 13.8525 2.87166C13.3815 3.45772 13.0414 4.13784 12.8552 4.86629C12.7017 5.5592 12.6842 6.27535 12.8039 6.9749C12.8039 7.09458 12.8039 7.11168 12.7014 7.09458C8.638 6.49619 5.30412 5.05436 2.58003 1.95983C2.46035 1.82306 2.39766 1.82306 2.30078 1.95983C1.1154 3.7607 1.69099 6.61017 3.17272 8.01781C3.37218 8.20587 3.57734 8.38824 3.7939 8.55921C3.11454 8.51098 2.45177 8.32688 1.84487 8.01781C1.73089 7.94372 1.6682 7.98361 1.6625 8.12039C1.64634 8.31001 1.64634 8.50066 1.6625 8.69028C1.78141 9.59903 2.13955 10.4599 2.70028 11.1848C3.26101 11.9098 4.00422 12.4728 4.85391 12.8163C5.06104 12.905 5.27687 12.9719 5.49789 13.0158C4.86897 13.1396 4.22393 13.1589 3.58874 13.0728C3.45197 13.0443 3.40068 13.1184 3.45197 13.2494C4.28971 15.529 6.10767 16.2243 7.44123 16.6118C7.62359 16.6403 7.80596 16.6403 8.01112 16.6859C8.01112 16.6859 8.01112 16.6859 7.97693 16.7201C7.5837 17.4382 5.9937 17.9226 5.26423 18.1733C3.93277 18.6516 2.51319 18.8344 1.104 18.709C0.881745 18.6748 0.830454 18.6805 0.773465 18.709C0.716475 18.7375 0.773465 18.8002 0.836153 18.8572C1.1211 19.0453 1.40605 19.2105 1.70239 19.3701C2.58461 19.8513 3.5173 20.2335 4.48348 20.5099C9.48715 21.889 15.1177 20.8746 18.8733 17.1418C21.8254 14.2126 22.8626 10.172 22.8626 6.12576C22.8626 5.97189 23.0506 5.8807 23.1589 5.80092C23.9058 5.219 24.5642 4.53176 25.1136 3.7607C25.2088 3.64576 25.2576 3.49942 25.2504 3.35037C25.2504 3.26489 25.2504 3.28199 25.1421 3.32758Z" fill="#337FFF"/>
</svg>
