<svg width="20" height="20" viewBox="0 0 20 20" fill="none" xmlns="http://www.w3.org/2000/svg">
<path fill-rule="evenodd" clip-rule="evenodd" d="M6.73078 16.6669C12.7691 16.6669 16.2624 11.9786 16.2624 7.52941C16.2624 7.40691 17.1208 6.67024 17.4883 5.13441C17.5633 4.82274 17.2599 4.57691 16.9741 4.70774C16.2408 5.04441 15.4966 4.77774 15.1733 4.39441C13.9299 3.03857 11.8508 2.97357 10.5283 4.24857C9.67578 5.07107 9.31411 6.29607 9.57828 7.46524C6.78578 7.66441 4.86828 6.34107 3.29161 4.52691C3.08828 4.29107 2.71078 4.41524 2.66828 4.72691C2.43494 6.46191 2.36161 10.6802 6.54161 13.1027C5.81578 14.1461 4.39494 14.7619 2.81328 15.0261C2.46328 15.0852 2.37994 15.5702 2.69994 15.7269C3.95328 16.3436 5.33078 16.6661 6.73078 16.6644" fill="#212529"/>
</svg>
