<svg width="25" height="25" viewBox="0 0 25 25" fill="none" xmlns="http://www.w3.org/2000/svg">
<path d="M12.5 4.5C13.5609 4.5 14.5783 4.92143 15.3284 5.67157C16.0786 6.42172 16.5 7.43913 16.5 8.5C16.5 9.56087 16.0786 10.5783 15.3284 11.3284C14.5783 12.0786 13.5609 12.5 12.5 12.5C11.4391 12.5 10.4217 12.0786 9.67157 11.3284C8.92143 10.5783 8.5 9.56087 8.5 8.5C8.5 7.43913 8.92143 6.42172 9.67157 5.67157C10.4217 4.92143 11.4391 4.5 12.5 4.5ZM12.5 6.5C11.9696 6.5 11.4609 6.71071 11.0858 7.08579C10.7107 7.46086 10.5 7.96957 10.5 8.5C10.5 9.03043 10.7107 9.53914 11.0858 9.91421C11.4609 10.2893 11.9696 10.5 12.5 10.5C13.0304 10.5 13.5391 10.2893 13.9142 9.91421C14.2893 9.53914 14.5 9.03043 14.5 8.5C14.5 7.96957 14.2893 7.46086 13.9142 7.08579C13.5391 6.71071 13.0304 6.5 12.5 6.5ZM12.5 13.5C15.17 13.5 20.5 14.83 20.5 17.5V20.5H4.5V17.5C4.5 14.83 9.83 13.5 12.5 13.5ZM12.5 15.4C9.53 15.4 6.4 16.86 6.4 17.5V18.6H18.6V17.5C18.6 16.86 15.47 15.4 12.5 15.4Z" fill="#DE221A"/>
</svg>
