<svg width="41" height="41" viewBox="0 0 41 41" fill="none" xmlns="http://www.w3.org/2000/svg">
<rect x="0.661377" y="0.5" width="40" height="40" rx="20" fill="white"/>
<path d="M30.2493 15.6912C30.0188 14.8344 29.3433 14.1589 28.4866 13.9282C26.9215 13.5 20.6612 13.5 20.6612 13.5C20.6612 13.5 14.401 13.5 12.8359 13.912C11.9957 14.1425 11.3037 14.8345 11.0732 15.6912C10.6614 17.2561 10.6614 20.5016 10.6614 20.5016C10.6614 20.5016 10.6614 23.7634 11.0732 25.312C11.304 26.1687 11.9793 26.8441 12.8361 27.0749C14.4175 27.5032 20.6614 27.5032 20.6614 27.5032C20.6614 27.5032 26.9215 27.5032 28.4866 27.0912C29.3434 26.8606 30.0188 26.1852 30.2495 25.3285C30.6613 23.7634 30.6613 20.5181 30.6613 20.5181C30.6613 20.5181 30.6778 17.2561 30.2493 15.6912ZM18.668 23.4999V17.5033L23.8738 20.5016L18.668 23.4999Z" fill="#DE221A"/>
</svg>
