<svg width="48" height="48" viewBox="0 0 48 48" fill="none" xmlns="http://www.w3.org/2000/svg">
<path d="M37.3504 17.3977C37.037 16.2195 36.1099 15.2901 34.9304 14.9715C32.7976 14.3999 24.2405 14.3999 24.2405 14.3999C24.2405 14.3999 15.6878 14.3999 13.5507 14.9715C12.3756 15.2857 11.4485 16.2152 11.1307 17.3977C10.5605 19.5359 10.5605 23.9999 10.5605 23.9999C10.5605 23.9999 10.5605 28.4639 11.1307 30.6021C11.4441 31.7803 12.3712 32.7097 13.5507 33.0283C15.6878 33.5999 24.2405 33.5999 24.2405 33.5999C24.2405 33.5999 32.7976 33.5999 34.9304 33.0283C36.1055 32.7141 37.0326 31.7846 37.3504 30.6021C37.9205 28.4639 37.9205 23.9999 37.9205 23.9999C37.9205 23.9999 37.9205 19.5359 37.3504 17.3977Z" fill="#FF3000"/>
<path d="M21.5072 28.1148L28.6148 23.9999L21.5072 19.885V28.1148Z" fill="white"/>
</svg>
